<svg xmlns="http://www.w3.org/2000/svg" xmlns:xlink="http://www.w3.org/1999/xlink" version="1.1" class="marks" width="575" height="119" viewBox="0 0 575 119"><rect width="575" height="119" fill="white"/><g fill="none" stroke-miterlimit="10" transform="translate(136,22)"><g class="mark-group role-frame root" role="graphics-object" aria-roledescription="group mark container"><g transform="translate(0,0)"><path class="background" aria-hidden="true" d="M0.5,0.5h300v60h-300Z" stroke="#ddd"/><g><g class="mark-group role-axis" aria-hidden="true"><g transform="translate(0.5,60.5)"><path class="background" aria-hidden="true" d="M0,0h0v0h0Z" pointer-events="none"/><g><g class="mark-rule role-axis-grid" pointer-events="none"><line transform="translate(0,0)" x2="0" y2="-60" stroke="#ddd" stroke-width="1" opacity="1"/><line transform="translate(30,0)" x2="0" y2="-60" stroke="#ddd" stroke-width="1" opacity="1"/><line transform="translate(60,0)" x2="0" y2="-60" stroke="#ddd" stroke-width="1" opacity="1"/><line transform="translate(90,0)" x2="0" y2="-60" stroke="#ddd" stroke-width="1" opacity="1"/><line transform="translate(120,0)" x2="0" y2="-60" stroke="#ddd" stroke-width="1" opacity="1"/><line transform="translate(150,0)" x2="0" y2="-60" stroke="#ddd" stroke-width="1" opacity="1"/><line transform="translate(180,0)" x2="0" y2="-60" stroke="#ddd" stroke-width="1" opacity="1"/><line transform="translate(210,0)" x2="0" y2="-60" stroke="#ddd" stroke-width="1" opacity="1"/><line transform="translate(240,0)" x2="0" y2="-60" stroke="#ddd" stroke-width="1" opacity="1"/><line transform="translate(270,0)" x2="0" y2="-60" stroke="#ddd" stroke-width="1" opacity="1"/><line transform="translate(300,0)" x2="0" y2="-60" stroke="#ddd" stroke-width="1" opacity="1"/></g></g><path class="foreground" aria-hidden="true" d="" pointer-events="none" display="none"/></g></g><g class="mark-group role-axis" role="graphics-symbol" aria-roledescription="axis" aria-label="X-axis titled 'Percentage (%)' for a linear scale with values from 0 to 100"><g transform="translate(0.5,60.5)"><path class="background" aria-hidden="true" d="M0,0h0v0h0Z" pointer-events="none"/><g><g class="mark-rule role-axis-tick" pointer-events="none"><line transform="translate(0,0)" x2="0" y2="5" stroke="#888" stroke-width="1" opacity="1"/><line transform="translate(30,0)" x2="0" y2="5" stroke="#888" stroke-width="1" opacity="1"/><line transform="translate(60,0)" x2="0" y2="5" stroke="#888" stroke-width="1" opacity="1"/><line transform="translate(90,0)" x2="0" y2="5" stroke="#888" stroke-width="1" opacity="1"/><line transform="translate(120,0)" x2="0" y2="5" stroke="#888" stroke-width="1" opacity="1"/><line transform="translate(150,0)" x2="0" y2="5" stroke="#888" stroke-width="1" opacity="1"/><line transform="translate(180,0)" x2="0" y2="5" stroke="#888" stroke-width="1" opacity="1"/><line transform="translate(210,0)" x2="0" y2="5" stroke="#888" stroke-width="1" opacity="1"/><line transform="translate(240,0)" x2="0" y2="5" stroke="#888" stroke-width="1" opacity="1"/><line transform="translate(270,0)" x2="0" y2="5" stroke="#888" stroke-width="1" opacity="1"/><line transform="translate(300,0)" x2="0" y2="5" stroke="#888" stroke-width="1" opacity="1"/></g><g class="mark-text role-axis-label" pointer-events="none"><text text-anchor="start" transform="translate(0,15)" font-family="sans-serif" font-size="10px" fill="#000" opacity="1">0</text><text text-anchor="middle" transform="translate(30,15)" font-family="sans-serif" font-size="10px" fill="#000" opacity="1">10</text><text text-anchor="middle" transform="translate(60,15)" font-family="sans-serif" font-size="10px" fill="#000" opacity="1">20</text><text text-anchor="middle" transform="translate(90,15)" font-family="sans-serif" font-size="10px" fill="#000" opacity="1">30</text><text text-anchor="middle" transform="translate(120,15)" font-family="sans-serif" font-size="10px" fill="#000" opacity="1">40</text><text text-anchor="middle" transform="translate(150,15)" font-family="sans-serif" font-size="10px" fill="#000" opacity="1">50</text><text text-anchor="middle" transform="translate(180,15)" font-family="sans-serif" font-size="10px" fill="#000" opacity="1">60</text><text text-anchor="middle" transform="translate(210,15)" font-family="sans-serif" font-size="10px" fill="#000" opacity="1">70</text><text text-anchor="middle" transform="translate(240,15)" font-family="sans-serif" font-size="10px" fill="#000" opacity="1">80</text><text text-anchor="middle" transform="translate(270,15)" font-family="sans-serif" font-size="10px" fill="#000" opacity="1">90</text><text text-anchor="end" transform="translate(300,15)" font-family="sans-serif" font-size="10px" fill="#000" opacity="1">100</text></g><g class="mark-rule role-axis-domain" pointer-events="none"><line transform="translate(0,0)" x2="300" y2="0" stroke="#888" stroke-width="1" opacity="1"/></g><g class="mark-text role-axis-title" pointer-events="none"><text text-anchor="middle" transform="translate(150,30)" font-family="sans-serif" font-size="11px" font-weight="bold" fill="#000" opacity="1">Percentage (%)</text></g></g><path class="foreground" aria-hidden="true" d="" pointer-events="none" display="none"/></g></g><g class="mark-group role-axis" role="graphics-symbol" aria-roledescription="axis" aria-label="Y-axis titled 'Use Case' for a discrete scale with 3 values: Personalized advertising, Marketing, Employment decisions"><g transform="translate(0.5,0.5)"><path class="background" aria-hidden="true" d="M0,0h0v0h0Z" pointer-events="none"/><g><g class="mark-rule role-axis-tick" pointer-events="none"><line transform="translate(0,10)" x2="-5" y2="0" stroke="#888" stroke-width="1" opacity="1"/><line transform="translate(0,30)" x2="-5" y2="0" stroke="#888" stroke-width="1" opacity="1"/><line transform="translate(0,50)" x2="-5" y2="0" stroke="#888" stroke-width="1" opacity="1"/></g><g class="mark-text role-axis-label" pointer-events="none"><text text-anchor="end" transform="translate(-7,13)" font-family="sans-serif" font-size="10px" fill="#000" opacity="1">Personalized advertising</text><text text-anchor="end" transform="translate(-7,33)" font-family="sans-serif" font-size="10px" fill="#000" opacity="1">Marketing</text><text text-anchor="end" transform="translate(-7,53)" font-family="sans-serif" font-size="10px" fill="#000" opacity="1">Employment decisions</text></g><g class="mark-rule role-axis-domain" pointer-events="none"><line transform="translate(0,0)" x2="0" y2="60" stroke="#888" stroke-width="1" opacity="1"/></g><g class="mark-text role-axis-title" pointer-events="none"><text text-anchor="middle" transform="translate(-119.9501953125,30) rotate(-90) translate(0,-2)" font-family="sans-serif" font-size="11px" font-weight="bold" fill="#000" opacity="1">Use Case</text></g></g><path class="foreground" aria-hidden="true" d="" pointer-events="none" display="none"/></g></g><g class="mark-group role-scope view_2_pathgroup" role="graphics-object" aria-roledescription="group mark container"><g transform="translate(0,0)"><path class="background" aria-hidden="true" d="M0,0h300v60h-300Z"/><g><g class="mark-line role-mark view_2_marks" clip-path="url(#clip11)" role="graphics-object" aria-roledescription="line mark container"><path aria-label="Percentage (%): 43.5483870968; Use Case: Marketing; Category: Marketing" role="graphics-symbol" aria-roledescription="line mark" d="M130.645,30L286.5,30" stroke="lightgray" stroke-width="5"/></g></g><path class="foreground" aria-hidden="true" d="" display="none"/></g><g transform="translate(0,0)"><path class="background" aria-hidden="true" d="M0,0h300v60h-300Z"/><g><g class="mark-line role-mark view_2_marks" clip-path="url(#clip12)" role="graphics-object" aria-roledescription="line mark container"><path aria-label="Percentage (%): 62.9032258065; Use Case: Personalized advertising; Category: Personalized advertising" role="graphics-symbol" aria-roledescription="line mark" d="M188.71,10L258,10" stroke="lightgray" stroke-width="5"/></g></g><path class="foreground" aria-hidden="true" d="" display="none"/></g><g transform="translate(0,0)"><path class="background" aria-hidden="true" d="M0,0h300v60h-300Z"/><g><g class="mark-line role-mark view_2_marks" clip-path="url(#clip13)" role="graphics-object" aria-roledescription="line mark container"><path aria-label="Percentage (%): 0; Use Case: Employment decisions; Category: Employment decisions" role="graphics-symbol" aria-roledescription="line mark" d="M0,50L177,50" stroke="lightgray" stroke-width="5"/></g></g><path class="foreground" aria-hidden="true" d="" display="none"/></g></g><g class="mark-symbol role-mark layer_0_layer_1_marks" clip-path="url(#clip14)" role="graphics-object" aria-roledescription="symbol mark container" pointer-events="none"><path aria-label="Percentage (%): 43.5483870968; Use Case: Marketing; Category: Marketing" role="graphics-symbol" aria-roledescription="point" transform="translate(130.6451612903226,30)" d="M2.739,0A2.739,2.739,0,1,1,-2.739,0A2.739,2.739,0,1,1,2.739,0" fill="lightgray" stroke-width="2" opacity="1"/><path aria-label="Percentage (%): 95.5; Use Case: Marketing; Category: Marketing" role="graphics-symbol" aria-roledescription="point" transform="translate(286.5,30)" d="M2.739,0A2.739,2.739,0,1,1,-2.739,0A2.739,2.739,0,1,1,2.739,0" fill="lightgray" stroke-width="2" opacity="1"/><path aria-label="Percentage (%): 62.9032258065; Use Case: Personalized advertising; Category: Personalized advertising" role="graphics-symbol" aria-roledescription="point" transform="translate(188.70967741935485,10)" d="M2.739,0A2.739,2.739,0,1,1,-2.739,0A2.739,2.739,0,1,1,2.739,0" fill="lightgray" stroke-width="2" opacity="1"/><path aria-label="Percentage (%): 86; Use Case: Personalized advertising; Category: Personalized advertising" role="graphics-symbol" aria-roledescription="point" transform="translate(258,10)" d="M2.739,0A2.739,2.739,0,1,1,-2.739,0A2.739,2.739,0,1,1,2.739,0" fill="lightgray" stroke-width="2" opacity="1"/><path aria-label="Percentage (%): 0; Use Case: Employment decisions; Category: Employment decisions" role="graphics-symbol" aria-roledescription="point" transform="translate(0,50)" d="M2.739,0A2.739,2.739,0,1,1,-2.739,0A2.739,2.739,0,1,1,2.739,0" fill="lightgray" stroke-width="2" opacity="1"/><path aria-label="Percentage (%): 59; Use Case: Employment decisions; Category: Employment decisions" role="graphics-symbol" aria-roledescription="point" transform="translate(177,50)" d="M2.739,0A2.739,2.739,0,1,1,-2.739,0A2.739,2.739,0,1,1,2.739,0" fill="lightgray" stroke-width="2" opacity="1"/></g><g class="mark-symbol role-mark layer_1_marks" clip-path="url(#clip15)" role="graphics-object" aria-roledescription="symbol mark container"><path aria-label="Percentage (%): 43.5483870968; Use Case: Marketing; Source: Consumers" role="graphics-symbol" aria-roledescription="point" transform="translate(130.6451612903226,30)" d="M5,0A5,5,0,1,1,-5,0A5,5,0,1,1,5,0" fill="#3498db" stroke-width="2" opacity="0.7"/><path aria-label="Percentage (%): 95.5; Use Case: Marketing; Source: Data Brokers (Explicit)" role="graphics-symbol" aria-roledescription="point" transform="translate(286.5,30)" d="M5,0A5,5,0,1,1,-5,0A5,5,0,1,1,5,0" fill="#e74c3c" stroke-width="2" opacity="0.7"/><path aria-label="Percentage (%): 62.9032258065; Use Case: Personalized advertising; Source: Consumers" role="graphics-symbol" aria-roledescription="point" transform="translate(188.70967741935485,10)" d="M5,0A5,5,0,1,1,-5,0A5,5,0,1,1,5,0" fill="#3498db" stroke-width="2" opacity="0.7"/><path aria-label="Percentage (%): 86; Use Case: Personalized advertising; Source: Data Brokers (Explicit)" role="graphics-symbol" aria-roledescription="point" transform="translate(258,10)" d="M5,0A5,5,0,1,1,-5,0A5,5,0,1,1,5,0" fill="#e74c3c" stroke-width="2" opacity="0.7"/><path aria-label="Percentage (%): 0; Use Case: Employment decisions; Source: Consumers" role="graphics-symbol" aria-roledescription="point" transform="translate(0,50)" d="M5,0A5,5,0,1,1,-5,0A5,5,0,1,1,5,0" fill="#3498db" stroke-width="2" opacity="0.7"/><path aria-label="Percentage (%): 59; Use Case: Employment decisions; Source: Data Brokers (Explicit)" role="graphics-symbol" aria-roledescription="point" transform="translate(177,50)" d="M5,0A5,5,0,1,1,-5,0A5,5,0,1,1,5,0" fill="#e74c3c" stroke-width="2" opacity="0.7"/></g><g class="mark-group role-legend" role="graphics-symbol" aria-roledescription="legend" aria-label="Symbol legend titled 'Source' for fill color with 2 values: Consumers, Data Brokers (Explicit)"><g transform="translate(318,0)"><path class="background" aria-hidden="true" d="M0,0h116v40h-116Z" pointer-events="none"/><g><g class="mark-group role-legend-entry"><g transform="translate(0,16)"><path class="background" aria-hidden="true" d="M0,0h0v0h0Z" pointer-events="none"/><g><g class="mark-group role-scope" role="graphics-object" aria-roledescription="group mark container"><g transform="translate(0,0)"><path class="background" aria-hidden="true" d="M0,0h115.4677734375v11h-115.4677734375Z" pointer-events="none" opacity="1"/><g><g class="mark-symbol role-legend-symbol" pointer-events="none"><path transform="translate(6,6)" d="M5,0A5,5,0,1,1,-5,0A5,5,0,1,1,5,0" fill="#3498db" stroke-width="1.5" opacity="0.7"/></g><g class="mark-text role-legend-label" pointer-events="none"><text text-anchor="start" transform="translate(16,9)" font-family="sans-serif" font-size="10px" fill="#000" opacity="1">Consumers</text></g></g><path class="foreground" aria-hidden="true" d="" pointer-events="none" display="none"/></g><g transform="translate(0,13)"><path class="background" aria-hidden="true" d="M0,0h115.4677734375v11h-115.4677734375Z" pointer-events="none" opacity="1"/><g><g class="mark-symbol role-legend-symbol" pointer-events="none"><path transform="translate(6,6)" d="M5,0A5,5,0,1,1,-5,0A5,5,0,1,1,5,0" fill="#e74c3c" stroke-width="1.5" opacity="0.7"/></g><g class="mark-text role-legend-label" pointer-events="none"><text text-anchor="start" transform="translate(16,9)" font-family="sans-serif" font-size="10px" fill="#000" opacity="1">Data Brokers (Explicit)</text></g></g><path class="foreground" aria-hidden="true" d="" pointer-events="none" display="none"/></g></g></g><path class="foreground" aria-hidden="true" d="" pointer-events="none" display="none"/></g></g><g class="mark-text role-legend-title" pointer-events="none"><text text-anchor="start" transform="translate(0,9)" font-family="sans-serif" font-size="11px" font-weight="bold" fill="#000" opacity="1">Source</text></g></g><path class="foreground" aria-hidden="true" d="" pointer-events="none" display="none"/></g></g><g class="mark-group role-title"><g transform="translate(150,-17)"><path class="background" aria-hidden="true" d="M0,0h0v0h0Z" pointer-events="none"/><g><g class="mark-text role-title-text" role="graphics-symbol" aria-roledescription="title" aria-label="Title text 'Disparity: Data Broker Collection vs. Consumer Comfort (Use Cases)'" pointer-events="none"><text text-anchor="middle" transform="translate(0,10)" font-family="sans-serif" font-size="13px" font-weight="bold" fill="#000" opacity="1">Disparity: Data Broker Collection vs. Consumer Comfort (Use Cases)</text></g></g><path class="foreground" aria-hidden="true" d="" pointer-events="none" display="none"/></g></g></g><path class="foreground" aria-hidden="true" d="" display="none"/></g></g></g><defs><clipPath id="clip11"><rect x="0" y="0" width="300" height="60"/></clipPath><clipPath id="clip12"><rect x="0" y="0" width="300" height="60"/></clipPath><clipPath id="clip13"><rect x="0" y="0" width="300" height="60"/></clipPath><clipPath id="clip14"><rect x="0" y="0" width="300" height="60"/></clipPath><clipPath id="clip15"><rect x="0" y="0" width="300" height="60"/></clipPath></defs></svg>