<svg xmlns="http://www.w3.org/2000/svg" xmlns:xlink="http://www.w3.org/1999/xlink" version="1.1" class="marks" width="646" height="239" viewBox="0 0 646 239"><rect width="646" height="239" fill="white"/><g fill="none" stroke-miterlimit="10" transform="translate(207,22)"><g class="mark-group role-frame root" role="graphics-object" aria-roledescription="group mark container"><g transform="translate(0,0)"><path class="background" aria-hidden="true" d="M0.5,0.5h300v180h-300Z" stroke="#ddd"/><g><g class="mark-group role-axis" aria-hidden="true"><g transform="translate(0.5,180.5)"><path class="background" aria-hidden="true" d="M0,0h0v0h0Z" pointer-events="none"/><g><g class="mark-rule role-axis-grid" pointer-events="none"><line transform="translate(0,0)" x2="0" y2="-180" stroke="#ddd" stroke-width="1" opacity="1"/><line transform="translate(30,0)" x2="0" y2="-180" stroke="#ddd" stroke-width="1" opacity="1"/><line transform="translate(60,0)" x2="0" y2="-180" stroke="#ddd" stroke-width="1" opacity="1"/><line transform="translate(90,0)" x2="0" y2="-180" stroke="#ddd" stroke-width="1" opacity="1"/><line transform="translate(120,0)" x2="0" y2="-180" stroke="#ddd" stroke-width="1" opacity="1"/><line transform="translate(150,0)" x2="0" y2="-180" stroke="#ddd" stroke-width="1" opacity="1"/><line transform="translate(180,0)" x2="0" y2="-180" stroke="#ddd" stroke-width="1" opacity="1"/><line transform="translate(210,0)" x2="0" y2="-180" stroke="#ddd" stroke-width="1" opacity="1"/><line transform="translate(240,0)" x2="0" y2="-180" stroke="#ddd" stroke-width="1" opacity="1"/><line transform="translate(270,0)" x2="0" y2="-180" stroke="#ddd" stroke-width="1" opacity="1"/><line transform="translate(300,0)" x2="0" y2="-180" stroke="#ddd" stroke-width="1" opacity="1"/></g></g><path class="foreground" aria-hidden="true" d="" pointer-events="none" display="none"/></g></g><g class="mark-group role-axis" role="graphics-symbol" aria-roledescription="axis" aria-label="X-axis titled 'Percentage (%)' for a linear scale with values from 0 to 100"><g transform="translate(0.5,180.5)"><path class="background" aria-hidden="true" d="M0,0h0v0h0Z" pointer-events="none"/><g><g class="mark-rule role-axis-tick" pointer-events="none"><line transform="translate(0,0)" x2="0" y2="5" stroke="#888" stroke-width="1" opacity="1"/><line transform="translate(30,0)" x2="0" y2="5" stroke="#888" stroke-width="1" opacity="1"/><line transform="translate(60,0)" x2="0" y2="5" stroke="#888" stroke-width="1" opacity="1"/><line transform="translate(90,0)" x2="0" y2="5" stroke="#888" stroke-width="1" opacity="1"/><line transform="translate(120,0)" x2="0" y2="5" stroke="#888" stroke-width="1" opacity="1"/><line transform="translate(150,0)" x2="0" y2="5" stroke="#888" stroke-width="1" opacity="1"/><line transform="translate(180,0)" x2="0" y2="5" stroke="#888" stroke-width="1" opacity="1"/><line transform="translate(210,0)" x2="0" y2="5" stroke="#888" stroke-width="1" opacity="1"/><line transform="translate(240,0)" x2="0" y2="5" stroke="#888" stroke-width="1" opacity="1"/><line transform="translate(270,0)" x2="0" y2="5" stroke="#888" stroke-width="1" opacity="1"/><line transform="translate(300,0)" x2="0" y2="5" stroke="#888" stroke-width="1" opacity="1"/></g><g class="mark-text role-axis-label" pointer-events="none"><text text-anchor="start" transform="translate(0,15)" font-family="sans-serif" font-size="10px" fill="#000" opacity="1">0</text><text text-anchor="middle" transform="translate(30,15)" font-family="sans-serif" font-size="10px" fill="#000" opacity="1">10</text><text text-anchor="middle" transform="translate(60,15)" font-family="sans-serif" font-size="10px" fill="#000" opacity="1">20</text><text text-anchor="middle" transform="translate(90,15)" font-family="sans-serif" font-size="10px" fill="#000" opacity="1">30</text><text text-anchor="middle" transform="translate(120,15)" font-family="sans-serif" font-size="10px" fill="#000" opacity="1">40</text><text text-anchor="middle" transform="translate(150,15)" font-family="sans-serif" font-size="10px" fill="#000" opacity="1">50</text><text text-anchor="middle" transform="translate(180,15)" font-family="sans-serif" font-size="10px" fill="#000" opacity="1">60</text><text text-anchor="middle" transform="translate(210,15)" font-family="sans-serif" font-size="10px" fill="#000" opacity="1">70</text><text text-anchor="middle" transform="translate(240,15)" font-family="sans-serif" font-size="10px" fill="#000" opacity="1">80</text><text text-anchor="middle" transform="translate(270,15)" font-family="sans-serif" font-size="10px" fill="#000" opacity="1">90</text><text text-anchor="end" transform="translate(300,15)" font-family="sans-serif" font-size="10px" fill="#000" opacity="1">100</text></g><g class="mark-rule role-axis-domain" pointer-events="none"><line transform="translate(0,0)" x2="300" y2="0" stroke="#888" stroke-width="1" opacity="1"/></g><g class="mark-text role-axis-title" pointer-events="none"><text text-anchor="middle" transform="translate(150,30)" font-family="sans-serif" font-size="11px" font-weight="bold" fill="#000" opacity="1">Percentage (%)</text></g></g><path class="foreground" aria-hidden="true" d="" pointer-events="none" display="none"/></g></g><g class="mark-group role-axis" role="graphics-symbol" aria-roledescription="axis" aria-label="Y-axis titled 'Use Case' for a discrete scale with 9 values: loans, credit scores), Personalized advertising, None of the above, Marketing, ending with Consumer financer decisions (e.g."><g transform="translate(0.5,0.5)"><path class="background" aria-hidden="true" d="M0,0h0v0h0Z" pointer-events="none"/><g><g class="mark-rule role-axis-tick" pointer-events="none"><line transform="translate(0,10)" x2="-5" y2="0" stroke="#888" stroke-width="1" opacity="1"/><line transform="translate(0,30)" x2="-5" y2="0" stroke="#888" stroke-width="1" opacity="1"/><line transform="translate(0,50)" x2="-5" y2="0" stroke="#888" stroke-width="1" opacity="1"/><line transform="translate(0,70)" x2="-5" y2="0" stroke="#888" stroke-width="1" opacity="1"/><line transform="translate(0,90)" x2="-5" y2="0" stroke="#888" stroke-width="1" opacity="1"/><line transform="translate(0,110)" x2="-5" y2="0" stroke="#888" stroke-width="1" opacity="1"/><line transform="translate(0,130)" x2="-5" y2="0" stroke="#888" stroke-width="1" opacity="1"/><line transform="translate(0,150)" x2="-5" y2="0" stroke="#888" stroke-width="1" opacity="1"/><line transform="translate(0,170)" x2="-5" y2="0" stroke="#888" stroke-width="1" opacity="1"/></g><g class="mark-text role-axis-label" pointer-events="none"><text text-anchor="end" transform="translate(-7,13)" font-family="sans-serif" font-size="10px" fill="#000" opacity="1">loans</text><text text-anchor="end" transform="translate(-7,33)" font-family="sans-serif" font-size="10px" fill="#000" opacity="1">credit scores)</text><text text-anchor="end" transform="translate(-7,53)" font-family="sans-serif" font-size="10px" fill="#000" opacity="1">Personalized advertising</text><text text-anchor="end" transform="translate(-7,73)" font-family="sans-serif" font-size="10px" fill="#000" opacity="1">None of the above</text><text text-anchor="end" transform="translate(-7,93)" font-family="sans-serif" font-size="10px" fill="#000" opacity="1">Marketing</text><text text-anchor="end" transform="translate(-7,113)" font-family="sans-serif" font-size="10px" fill="#000" opacity="1">Law enforcement access without a su…</text><text text-anchor="end" transform="translate(-7,133)" font-family="sans-serif" font-size="10px" fill="#000" opacity="1">Employment-related decisions</text><text text-anchor="end" transform="translate(-7,153)" font-family="sans-serif" font-size="10px" fill="#000" opacity="1">Employment decisions</text><text text-anchor="end" transform="translate(-7,173)" font-family="sans-serif" font-size="10px" fill="#000" opacity="1">Consumer financer decisions (e.g.</text></g><g class="mark-rule role-axis-domain" pointer-events="none"><line transform="translate(0,0)" x2="0" y2="180" stroke="#888" stroke-width="1" opacity="1"/></g><g class="mark-text role-axis-title" pointer-events="none"><text text-anchor="middle" transform="translate(-191,90) rotate(-90) translate(0,-2)" font-family="sans-serif" font-size="11px" font-weight="bold" fill="#000" opacity="1">Use Case</text></g></g><path class="foreground" aria-hidden="true" d="" pointer-events="none" display="none"/></g></g><g class="mark-group role-scope view_2_pathgroup" role="graphics-object" aria-roledescription="group mark container"><g transform="translate(0,0)"><path class="background" aria-hidden="true" d="M0,0h300v180h-300Z"/><g><g class="mark-line role-mark view_2_marks" clip-path="url(#clip21)" role="graphics-object" aria-roledescription="line mark container"><path aria-label="Percentage (%): 43.5483870968; Use Case: Marketing; Category: Marketing" role="graphics-symbol" aria-roledescription="line mark" d="M130.645,90L286.5,90" stroke="lightgray" stroke-width="5"/></g></g><path class="foreground" aria-hidden="true" d="" display="none"/></g><g transform="translate(0,0)"><path class="background" aria-hidden="true" d="M0,0h300v180h-300Z"/><g><g class="mark-line role-mark view_2_marks" clip-path="url(#clip22)" role="graphics-object" aria-roledescription="line mark container"><path aria-label="Percentage (%): 62.9032258065; Use Case: Personalized advertising; Category: Personalized advertising" role="graphics-symbol" aria-roledescription="line mark" d="M188.71,50L258,50" stroke="lightgray" stroke-width="5"/></g></g><path class="foreground" aria-hidden="true" d="" display="none"/></g><g transform="translate(0,0)"><path class="background" aria-hidden="true" d="M0,0h300v180h-300Z"/><g><g class="mark-line role-mark view_2_marks" clip-path="url(#clip23)" role="graphics-object" aria-roledescription="line mark container"><path aria-label="Percentage (%): 0; Use Case: Employment decisions; Category: Employment decisions" role="graphics-symbol" aria-roledescription="line mark" d="M0,150L177,150" stroke="lightgray" stroke-width="5"/></g></g><path class="foreground" aria-hidden="true" d="" display="none"/></g><g transform="translate(0,0)"><path class="background" aria-hidden="true" d="M0,0h300v180h-300Z"/><g><g class="mark-line role-mark view_2_marks" clip-path="url(#clip24)" role="graphics-object" aria-roledescription="line mark container"><path aria-label="Percentage (%): 20.9677419355; Use Case: Consumer financer decisions (e.g.; Category: Consumer financer decisions (e.g." role="graphics-symbol" aria-roledescription="line mark" d="M62.903,170L0,170" stroke="lightgray" stroke-width="5"/></g></g><path class="foreground" aria-hidden="true" d="" display="none"/></g><g transform="translate(0,0)"><path class="background" aria-hidden="true" d="M0,0h300v180h-300Z"/><g><g class="mark-line role-mark view_2_marks" clip-path="url(#clip25)" role="graphics-object" aria-roledescription="line mark container"><path aria-label="Percentage (%): 25.8064516129; Use Case: Employment-related decisions; Category: Employment-related decisions" role="graphics-symbol" aria-roledescription="line mark" d="M77.419,130L0,130" stroke="lightgray" stroke-width="5"/></g></g><path class="foreground" aria-hidden="true" d="" display="none"/></g><g transform="translate(0,0)"><path class="background" aria-hidden="true" d="M0,0h300v180h-300Z"/><g><g class="mark-line role-mark view_2_marks" clip-path="url(#clip26)" role="graphics-object" aria-roledescription="line mark container"><path aria-label="Percentage (%): 6.45161290323; Use Case: Law enforcement access without a subpoena; Category: Law enforcement access without a subpoena" role="graphics-symbol" aria-roledescription="line mark" d="M19.355,110L0,110" stroke="lightgray" stroke-width="5"/></g></g><path class="foreground" aria-hidden="true" d="" display="none"/></g><g transform="translate(0,0)"><path class="background" aria-hidden="true" d="M0,0h300v180h-300Z"/><g><g class="mark-line role-mark view_2_marks" clip-path="url(#clip27)" role="graphics-object" aria-roledescription="line mark container"><path aria-label="Percentage (%): 24.1935483871; Use Case: None of the above; Category: None of the above" role="graphics-symbol" aria-roledescription="line mark" d="M72.581,70L0,70" stroke="lightgray" stroke-width="5"/></g></g><path class="foreground" aria-hidden="true" d="" display="none"/></g><g transform="translate(0,0)"><path class="background" aria-hidden="true" d="M0,0h300v180h-300Z"/><g><g class="mark-line role-mark view_2_marks" clip-path="url(#clip28)" role="graphics-object" aria-roledescription="line mark container"><path aria-label="Percentage (%): 20.9677419355; Use Case: credit scores); Category: credit scores)" role="graphics-symbol" aria-roledescription="line mark" d="M62.903,30L0,30" stroke="lightgray" stroke-width="5"/></g></g><path class="foreground" aria-hidden="true" d="" display="none"/></g><g transform="translate(0,0)"><path class="background" aria-hidden="true" d="M0,0h300v180h-300Z"/><g><g class="mark-line role-mark view_2_marks" clip-path="url(#clip29)" role="graphics-object" aria-roledescription="line mark container"><path aria-label="Percentage (%): 20.9677419355; Use Case: loans; Category: loans" role="graphics-symbol" aria-roledescription="line mark" d="M62.903,10L0,10" stroke="lightgray" stroke-width="5"/></g></g><path class="foreground" aria-hidden="true" d="" display="none"/></g></g><g class="mark-symbol role-mark layer_0_layer_1_marks" clip-path="url(#clip30)" role="graphics-object" aria-roledescription="symbol mark container" pointer-events="none"><path aria-label="Percentage (%): 43.5483870968; Use Case: Marketing; Category: Marketing" role="graphics-symbol" aria-roledescription="point" transform="translate(130.6451612903226,90)" d="M2.739,0A2.739,2.739,0,1,1,-2.739,0A2.739,2.739,0,1,1,2.739,0" fill="lightgray" stroke-width="2" opacity="1"/><path aria-label="Percentage (%): 95.5; Use Case: Marketing; Category: Marketing" role="graphics-symbol" aria-roledescription="point" transform="translate(286.5,90)" d="M2.739,0A2.739,2.739,0,1,1,-2.739,0A2.739,2.739,0,1,1,2.739,0" fill="lightgray" stroke-width="2" opacity="1"/><path aria-label="Percentage (%): 62.9032258065; Use Case: Personalized advertising; Category: Personalized advertising" role="graphics-symbol" aria-roledescription="point" transform="translate(188.70967741935485,50)" d="M2.739,0A2.739,2.739,0,1,1,-2.739,0A2.739,2.739,0,1,1,2.739,0" fill="lightgray" stroke-width="2" opacity="1"/><path aria-label="Percentage (%): 86; Use Case: Personalized advertising; Category: Personalized advertising" role="graphics-symbol" aria-roledescription="point" transform="translate(258,50)" d="M2.739,0A2.739,2.739,0,1,1,-2.739,0A2.739,2.739,0,1,1,2.739,0" fill="lightgray" stroke-width="2" opacity="1"/><path aria-label="Percentage (%): 0; Use Case: Employment decisions; Category: Employment decisions" role="graphics-symbol" aria-roledescription="point" transform="translate(0,150)" d="M2.739,0A2.739,2.739,0,1,1,-2.739,0A2.739,2.739,0,1,1,2.739,0" fill="lightgray" stroke-width="2" opacity="1"/><path aria-label="Percentage (%): 59; Use Case: Employment decisions; Category: Employment decisions" role="graphics-symbol" aria-roledescription="point" transform="translate(177,150)" d="M2.739,0A2.739,2.739,0,1,1,-2.739,0A2.739,2.739,0,1,1,2.739,0" fill="lightgray" stroke-width="2" opacity="1"/><path aria-label="Percentage (%): 20.9677419355; Use Case: Consumer financer decisions (e.g.; Category: Consumer financer decisions (e.g." role="graphics-symbol" aria-roledescription="point" transform="translate(62.903225806451616,170)" d="M2.739,0A2.739,2.739,0,1,1,-2.739,0A2.739,2.739,0,1,1,2.739,0" fill="lightgray" stroke-width="2" opacity="1"/><path aria-label="Percentage (%): 0; Use Case: Consumer financer decisions (e.g.; Category: Consumer financer decisions (e.g." role="graphics-symbol" aria-roledescription="point" transform="translate(0,170)" d="M2.739,0A2.739,2.739,0,1,1,-2.739,0A2.739,2.739,0,1,1,2.739,0" fill="lightgray" stroke-width="2" opacity="1"/><path aria-label="Percentage (%): 25.8064516129; Use Case: Employment-related decisions; Category: Employment-related decisions" role="graphics-symbol" aria-roledescription="point" transform="translate(77.41935483870968,130)" d="M2.739,0A2.739,2.739,0,1,1,-2.739,0A2.739,2.739,0,1,1,2.739,0" fill="lightgray" stroke-width="2" opacity="1"/><path aria-label="Percentage (%): 0; Use Case: Employment-related decisions; Category: Employment-related decisions" role="graphics-symbol" aria-roledescription="point" transform="translate(0,130)" d="M2.739,0A2.739,2.739,0,1,1,-2.739,0A2.739,2.739,0,1,1,2.739,0" fill="lightgray" stroke-width="2" opacity="1"/><path aria-label="Percentage (%): 6.45161290323; Use Case: Law enforcement access without a subpoena; Category: Law enforcement access without a subpoena" role="graphics-symbol" aria-roledescription="point" transform="translate(19.35483870967742,110)" d="M2.739,0A2.739,2.739,0,1,1,-2.739,0A2.739,2.739,0,1,1,2.739,0" fill="lightgray" stroke-width="2" opacity="1"/><path aria-label="Percentage (%): 0; Use Case: Law enforcement access without a subpoena; Category: Law enforcement access without a subpoena" role="graphics-symbol" aria-roledescription="point" transform="translate(0,110)" d="M2.739,0A2.739,2.739,0,1,1,-2.739,0A2.739,2.739,0,1,1,2.739,0" fill="lightgray" stroke-width="2" opacity="1"/><path aria-label="Percentage (%): 24.1935483871; Use Case: None of the above; Category: None of the above" role="graphics-symbol" aria-roledescription="point" transform="translate(72.58064516129032,70)" d="M2.739,0A2.739,2.739,0,1,1,-2.739,0A2.739,2.739,0,1,1,2.739,0" fill="lightgray" stroke-width="2" opacity="1"/><path aria-label="Percentage (%): 0; Use Case: None of the above; Category: None of the above" role="graphics-symbol" aria-roledescription="point" transform="translate(0,70)" d="M2.739,0A2.739,2.739,0,1,1,-2.739,0A2.739,2.739,0,1,1,2.739,0" fill="lightgray" stroke-width="2" opacity="1"/><path aria-label="Percentage (%): 20.9677419355; Use Case: credit scores); Category: credit scores)" role="graphics-symbol" aria-roledescription="point" transform="translate(62.903225806451616,30)" d="M2.739,0A2.739,2.739,0,1,1,-2.739,0A2.739,2.739,0,1,1,2.739,0" fill="lightgray" stroke-width="2" opacity="1"/><path aria-label="Percentage (%): 0; Use Case: credit scores); Category: credit scores)" role="graphics-symbol" aria-roledescription="point" transform="translate(0,30)" d="M2.739,0A2.739,2.739,0,1,1,-2.739,0A2.739,2.739,0,1,1,2.739,0" fill="lightgray" stroke-width="2" opacity="1"/><path aria-label="Percentage (%): 20.9677419355; Use Case: loans; Category: loans" role="graphics-symbol" aria-roledescription="point" transform="translate(62.903225806451616,10)" d="M2.739,0A2.739,2.739,0,1,1,-2.739,0A2.739,2.739,0,1,1,2.739,0" fill="lightgray" stroke-width="2" opacity="1"/><path aria-label="Percentage (%): 0; Use Case: loans; Category: loans" role="graphics-symbol" aria-roledescription="point" transform="translate(0,10)" d="M2.739,0A2.739,2.739,0,1,1,-2.739,0A2.739,2.739,0,1,1,2.739,0" fill="lightgray" stroke-width="2" opacity="1"/></g><g class="mark-symbol role-mark layer_1_marks" clip-path="url(#clip31)" role="graphics-object" aria-roledescription="symbol mark container"><path aria-label="Percentage (%): 43.5483870968; Use Case: Marketing; Source: Consumers" role="graphics-symbol" aria-roledescription="point" transform="translate(130.6451612903226,90)" d="M5,0A5,5,0,1,1,-5,0A5,5,0,1,1,5,0" fill="#3498db" stroke-width="2" opacity="0.7"/><path aria-label="Percentage (%): 95.5; Use Case: Marketing; Source: Data Brokers (Explicit)" role="graphics-symbol" aria-roledescription="point" transform="translate(286.5,90)" d="M5,0A5,5,0,1,1,-5,0A5,5,0,1,1,5,0" fill="#e74c3c" stroke-width="2" opacity="0.7"/><path aria-label="Percentage (%): 62.9032258065; Use Case: Personalized advertising; Source: Consumers" role="graphics-symbol" aria-roledescription="point" transform="translate(188.70967741935485,50)" d="M5,0A5,5,0,1,1,-5,0A5,5,0,1,1,5,0" fill="#3498db" stroke-width="2" opacity="0.7"/><path aria-label="Percentage (%): 86; Use Case: Personalized advertising; Source: Data Brokers (Explicit)" role="graphics-symbol" aria-roledescription="point" transform="translate(258,50)" d="M5,0A5,5,0,1,1,-5,0A5,5,0,1,1,5,0" fill="#e74c3c" stroke-width="2" opacity="0.7"/><path aria-label="Percentage (%): 0; Use Case: Employment decisions; Source: Consumers" role="graphics-symbol" aria-roledescription="point" transform="translate(0,150)" d="M5,0A5,5,0,1,1,-5,0A5,5,0,1,1,5,0" fill="#3498db" stroke-width="2" opacity="0.7"/><path aria-label="Percentage (%): 59; Use Case: Employment decisions; Source: Data Brokers (Explicit)" role="graphics-symbol" aria-roledescription="point" transform="translate(177,150)" d="M5,0A5,5,0,1,1,-5,0A5,5,0,1,1,5,0" fill="#e74c3c" stroke-width="2" opacity="0.7"/><path aria-label="Percentage (%): 20.9677419355; Use Case: Consumer financer decisions (e.g.; Source: Consumers" role="graphics-symbol" aria-roledescription="point" transform="translate(62.903225806451616,170)" d="M5,0A5,5,0,1,1,-5,0A5,5,0,1,1,5,0" fill="#3498db" stroke-width="2" opacity="0.7"/><path aria-label="Percentage (%): 0; Use Case: Consumer financer decisions (e.g.; Source: Data Brokers (Explicit)" role="graphics-symbol" aria-roledescription="point" transform="translate(0,170)" d="M5,0A5,5,0,1,1,-5,0A5,5,0,1,1,5,0" fill="#e74c3c" stroke-width="2" opacity="0.7"/><path aria-label="Percentage (%): 25.8064516129; Use Case: Employment-related decisions; Source: Consumers" role="graphics-symbol" aria-roledescription="point" transform="translate(77.41935483870968,130)" d="M5,0A5,5,0,1,1,-5,0A5,5,0,1,1,5,0" fill="#3498db" stroke-width="2" opacity="0.7"/><path aria-label="Percentage (%): 0; Use Case: Employment-related decisions; Source: Data Brokers (Explicit)" role="graphics-symbol" aria-roledescription="point" transform="translate(0,130)" d="M5,0A5,5,0,1,1,-5,0A5,5,0,1,1,5,0" fill="#e74c3c" stroke-width="2" opacity="0.7"/><path aria-label="Percentage (%): 6.45161290323; Use Case: Law enforcement access without a subpoena; Source: Consumers" role="graphics-symbol" aria-roledescription="point" transform="translate(19.35483870967742,110)" d="M5,0A5,5,0,1,1,-5,0A5,5,0,1,1,5,0" fill="#3498db" stroke-width="2" opacity="0.7"/><path aria-label="Percentage (%): 0; Use Case: Law enforcement access without a subpoena; Source: Data Brokers (Explicit)" role="graphics-symbol" aria-roledescription="point" transform="translate(0,110)" d="M5,0A5,5,0,1,1,-5,0A5,5,0,1,1,5,0" fill="#e74c3c" stroke-width="2" opacity="0.7"/><path aria-label="Percentage (%): 24.1935483871; Use Case: None of the above; Source: Consumers" role="graphics-symbol" aria-roledescription="point" transform="translate(72.58064516129032,70)" d="M5,0A5,5,0,1,1,-5,0A5,5,0,1,1,5,0" fill="#3498db" stroke-width="2" opacity="0.7"/><path aria-label="Percentage (%): 0; Use Case: None of the above; Source: Data Brokers (Explicit)" role="graphics-symbol" aria-roledescription="point" transform="translate(0,70)" d="M5,0A5,5,0,1,1,-5,0A5,5,0,1,1,5,0" fill="#e74c3c" stroke-width="2" opacity="0.7"/><path aria-label="Percentage (%): 20.9677419355; Use Case: credit scores); Source: Consumers" role="graphics-symbol" aria-roledescription="point" transform="translate(62.903225806451616,30)" d="M5,0A5,5,0,1,1,-5,0A5,5,0,1,1,5,0" fill="#3498db" stroke-width="2" opacity="0.7"/><path aria-label="Percentage (%): 0; Use Case: credit scores); Source: Data Brokers (Explicit)" role="graphics-symbol" aria-roledescription="point" transform="translate(0,30)" d="M5,0A5,5,0,1,1,-5,0A5,5,0,1,1,5,0" fill="#e74c3c" stroke-width="2" opacity="0.7"/><path aria-label="Percentage (%): 20.9677419355; Use Case: loans; Source: Consumers" role="graphics-symbol" aria-roledescription="point" transform="translate(62.903225806451616,10)" d="M5,0A5,5,0,1,1,-5,0A5,5,0,1,1,5,0" fill="#3498db" stroke-width="2" opacity="0.7"/><path aria-label="Percentage (%): 0; Use Case: loans; Source: Data Brokers (Explicit)" role="graphics-symbol" aria-roledescription="point" transform="translate(0,10)" d="M5,0A5,5,0,1,1,-5,0A5,5,0,1,1,5,0" fill="#e74c3c" stroke-width="2" opacity="0.7"/></g><g class="mark-group role-legend" role="graphics-symbol" aria-roledescription="legend" aria-label="Symbol legend titled 'Source' for fill color with 2 values: Consumers, Data Brokers (Explicit)"><g transform="translate(318,0)"><path class="background" aria-hidden="true" d="M0,0h116v40h-116Z" pointer-events="none"/><g><g class="mark-group role-legend-entry"><g transform="translate(0,16)"><path class="background" aria-hidden="true" d="M0,0h0v0h0Z" pointer-events="none"/><g><g class="mark-group role-scope" role="graphics-object" aria-roledescription="group mark container"><g transform="translate(0,0)"><path class="background" aria-hidden="true" d="M0,0h115.4677734375v11h-115.4677734375Z" pointer-events="none" opacity="1"/><g><g class="mark-symbol role-legend-symbol" pointer-events="none"><path transform="translate(6,6)" d="M5,0A5,5,0,1,1,-5,0A5,5,0,1,1,5,0" fill="#3498db" stroke-width="1.5" opacity="0.7"/></g><g class="mark-text role-legend-label" pointer-events="none"><text text-anchor="start" transform="translate(16,9)" font-family="sans-serif" font-size="10px" fill="#000" opacity="1">Consumers</text></g></g><path class="foreground" aria-hidden="true" d="" pointer-events="none" display="none"/></g><g transform="translate(0,13)"><path class="background" aria-hidden="true" d="M0,0h115.4677734375v11h-115.4677734375Z" pointer-events="none" opacity="1"/><g><g class="mark-symbol role-legend-symbol" pointer-events="none"><path transform="translate(6,6)" d="M5,0A5,5,0,1,1,-5,0A5,5,0,1,1,5,0" fill="#e74c3c" stroke-width="1.5" opacity="0.7"/></g><g class="mark-text role-legend-label" pointer-events="none"><text text-anchor="start" transform="translate(16,9)" font-family="sans-serif" font-size="10px" fill="#000" opacity="1">Data Brokers (Explicit)</text></g></g><path class="foreground" aria-hidden="true" d="" pointer-events="none" display="none"/></g></g></g><path class="foreground" aria-hidden="true" d="" pointer-events="none" display="none"/></g></g><g class="mark-text role-legend-title" pointer-events="none"><text text-anchor="start" transform="translate(0,9)" font-family="sans-serif" font-size="11px" font-weight="bold" fill="#000" opacity="1">Source</text></g></g><path class="foreground" aria-hidden="true" d="" pointer-events="none" display="none"/></g></g><g class="mark-group role-title"><g transform="translate(150,-17)"><path class="background" aria-hidden="true" d="M0,0h0v0h0Z" pointer-events="none"/><g><g class="mark-text role-title-text" role="graphics-symbol" aria-roledescription="title" aria-label="Title text 'Disparity: Data Broker Collection vs. Consumer Comfort (Use Cases)'" pointer-events="none"><text text-anchor="middle" transform="translate(0,10)" font-family="sans-serif" font-size="13px" font-weight="bold" fill="#000" opacity="1">Disparity: Data Broker Collection vs. Consumer Comfort (Use Cases)</text></g></g><path class="foreground" aria-hidden="true" d="" pointer-events="none" display="none"/></g></g></g><path class="foreground" aria-hidden="true" d="" display="none"/></g></g></g><defs><clipPath id="clip21"><rect x="0" y="0" width="300" height="180"/></clipPath><clipPath id="clip22"><rect x="0" y="0" width="300" height="180"/></clipPath><clipPath id="clip23"><rect x="0" y="0" width="300" height="180"/></clipPath><clipPath id="clip24"><rect x="0" y="0" width="300" height="180"/></clipPath><clipPath id="clip25"><rect x="0" y="0" width="300" height="180"/></clipPath><clipPath id="clip26"><rect x="0" y="0" width="300" height="180"/></clipPath><clipPath id="clip27"><rect x="0" y="0" width="300" height="180"/></clipPath><clipPath id="clip28"><rect x="0" y="0" width="300" height="180"/></clipPath><clipPath id="clip29"><rect x="0" y="0" width="300" height="180"/></clipPath><clipPath id="clip30"><rect x="0" y="0" width="300" height="180"/></clipPath><clipPath id="clip31"><rect x="0" y="0" width="300" height="180"/></clipPath></defs></svg>