<svg xmlns="http://www.w3.org/2000/svg" xmlns:xlink="http://www.w3.org/1999/xlink" version="1.1" class="marks" width="655" height="419" viewBox="0 0 655 419"><rect width="655" height="419" fill="white"/><g fill="none" stroke-miterlimit="10" transform="translate(207,22)"><g class="mark-group role-frame root" role="graphics-object" aria-roledescription="group mark container"><g transform="translate(0,0)"><path class="background" aria-hidden="true" d="M0.5,0.5h300v360h-300Z" stroke="#ddd"/><g><g class="mark-group role-axis" aria-hidden="true"><g transform="translate(0.5,360.5)"><path class="background" aria-hidden="true" d="M0,0h0v0h0Z" pointer-events="none"/><g><g class="mark-rule role-axis-grid" pointer-events="none"><line transform="translate(0,0)" x2="0" y2="-360" stroke="#ddd" stroke-width="1" opacity="1"/><line transform="translate(30,0)" x2="0" y2="-360" stroke="#ddd" stroke-width="1" opacity="1"/><line transform="translate(60,0)" x2="0" y2="-360" stroke="#ddd" stroke-width="1" opacity="1"/><line transform="translate(90,0)" x2="0" y2="-360" stroke="#ddd" stroke-width="1" opacity="1"/><line transform="translate(120,0)" x2="0" y2="-360" stroke="#ddd" stroke-width="1" opacity="1"/><line transform="translate(150,0)" x2="0" y2="-360" stroke="#ddd" stroke-width="1" opacity="1"/><line transform="translate(180,0)" x2="0" y2="-360" stroke="#ddd" stroke-width="1" opacity="1"/><line transform="translate(210,0)" x2="0" y2="-360" stroke="#ddd" stroke-width="1" opacity="1"/><line transform="translate(240,0)" x2="0" y2="-360" stroke="#ddd" stroke-width="1" opacity="1"/><line transform="translate(270,0)" x2="0" y2="-360" stroke="#ddd" stroke-width="1" opacity="1"/><line transform="translate(300,0)" x2="0" y2="-360" stroke="#ddd" stroke-width="1" opacity="1"/></g></g><path class="foreground" aria-hidden="true" d="" pointer-events="none" display="none"/></g></g><g class="mark-group role-axis" role="graphics-symbol" aria-roledescription="axis" aria-label="X-axis titled 'Percentage (%)' for a linear scale with values from 0 to 100"><g transform="translate(0.5,360.5)"><path class="background" aria-hidden="true" d="M0,0h0v0h0Z" pointer-events="none"/><g><g class="mark-rule role-axis-tick" pointer-events="none"><line transform="translate(0,0)" x2="0" y2="5" stroke="#888" stroke-width="1" opacity="1"/><line transform="translate(30,0)" x2="0" y2="5" stroke="#888" stroke-width="1" opacity="1"/><line transform="translate(60,0)" x2="0" y2="5" stroke="#888" stroke-width="1" opacity="1"/><line transform="translate(90,0)" x2="0" y2="5" stroke="#888" stroke-width="1" opacity="1"/><line transform="translate(120,0)" x2="0" y2="5" stroke="#888" stroke-width="1" opacity="1"/><line transform="translate(150,0)" x2="0" y2="5" stroke="#888" stroke-width="1" opacity="1"/><line transform="translate(180,0)" x2="0" y2="5" stroke="#888" stroke-width="1" opacity="1"/><line transform="translate(210,0)" x2="0" y2="5" stroke="#888" stroke-width="1" opacity="1"/><line transform="translate(240,0)" x2="0" y2="5" stroke="#888" stroke-width="1" opacity="1"/><line transform="translate(270,0)" x2="0" y2="5" stroke="#888" stroke-width="1" opacity="1"/><line transform="translate(300,0)" x2="0" y2="5" stroke="#888" stroke-width="1" opacity="1"/></g><g class="mark-text role-axis-label" pointer-events="none"><text text-anchor="start" transform="translate(0,15)" font-family="sans-serif" font-size="10px" fill="#000" opacity="1">0</text><text text-anchor="middle" transform="translate(30,15)" font-family="sans-serif" font-size="10px" fill="#000" opacity="1">10</text><text text-anchor="middle" transform="translate(60,15)" font-family="sans-serif" font-size="10px" fill="#000" opacity="1">20</text><text text-anchor="middle" transform="translate(90,15)" font-family="sans-serif" font-size="10px" fill="#000" opacity="1">30</text><text text-anchor="middle" transform="translate(120,15)" font-family="sans-serif" font-size="10px" fill="#000" opacity="1">40</text><text text-anchor="middle" transform="translate(150,15)" font-family="sans-serif" font-size="10px" fill="#000" opacity="1">50</text><text text-anchor="middle" transform="translate(180,15)" font-family="sans-serif" font-size="10px" fill="#000" opacity="1">60</text><text text-anchor="middle" transform="translate(210,15)" font-family="sans-serif" font-size="10px" fill="#000" opacity="1">70</text><text text-anchor="middle" transform="translate(240,15)" font-family="sans-serif" font-size="10px" fill="#000" opacity="1">80</text><text text-anchor="middle" transform="translate(270,15)" font-family="sans-serif" font-size="10px" fill="#000" opacity="1">90</text><text text-anchor="end" transform="translate(300,15)" font-family="sans-serif" font-size="10px" fill="#000" opacity="1">100</text></g><g class="mark-rule role-axis-domain" pointer-events="none"><line transform="translate(0,0)" x2="300" y2="0" stroke="#888" stroke-width="1" opacity="1"/></g><g class="mark-text role-axis-title" pointer-events="none"><text text-anchor="middle" transform="translate(150,30)" font-family="sans-serif" font-size="11px" font-weight="bold" fill="#000" opacity="1">Percentage (%)</text></g></g><path class="foreground" aria-hidden="true" d="" pointer-events="none" display="none"/></g></g><g class="mark-group role-axis" role="graphics-symbol" aria-roledescription="axis" aria-label="Y-axis titled 'Data Type' for a discrete scale with 18 values: voice, purchasing and transaction history), fingerprint, facial recognition), browsing history), ending with Biometric data"><g transform="translate(0.5,0.5)"><path class="background" aria-hidden="true" d="M0,0h0v0h0Z" pointer-events="none"/><g><g class="mark-rule role-axis-tick" pointer-events="none"><line transform="translate(0,10)" x2="-5" y2="0" stroke="#888" stroke-width="1" opacity="1"/><line transform="translate(0,30)" x2="-5" y2="0" stroke="#888" stroke-width="1" opacity="1"/><line transform="translate(0,50)" x2="-5" y2="0" stroke="#888" stroke-width="1" opacity="1"/><line transform="translate(0,70)" x2="-5" y2="0" stroke="#888" stroke-width="1" opacity="1"/><line transform="translate(0,90)" x2="-5" y2="0" stroke="#888" stroke-width="1" opacity="1"/><line transform="translate(0,110)" x2="-5" y2="0" stroke="#888" stroke-width="1" opacity="1"/><line transform="translate(0,130)" x2="-5" y2="0" stroke="#888" stroke-width="1" opacity="1"/><line transform="translate(0,150)" x2="-5" y2="0" stroke="#888" stroke-width="1" opacity="1"/><line transform="translate(0,170)" x2="-5" y2="0" stroke="#888" stroke-width="1" opacity="1"/><line transform="translate(0,190)" x2="-5" y2="0" stroke="#888" stroke-width="1" opacity="1"/><line transform="translate(0,210)" x2="-5" y2="0" stroke="#888" stroke-width="1" opacity="1"/><line transform="translate(0,230)" x2="-5" y2="0" stroke="#888" stroke-width="1" opacity="1"/><line transform="translate(0,250)" x2="-5" y2="0" stroke="#888" stroke-width="1" opacity="1"/><line transform="translate(0,270)" x2="-5" y2="0" stroke="#888" stroke-width="1" opacity="1"/><line transform="translate(0,290)" x2="-5" y2="0" stroke="#888" stroke-width="1" opacity="1"/><line transform="translate(0,310)" x2="-5" y2="0" stroke="#888" stroke-width="1" opacity="1"/><line transform="translate(0,330)" x2="-5" y2="0" stroke="#888" stroke-width="1" opacity="1"/><line transform="translate(0,350)" x2="-5" y2="0" stroke="#888" stroke-width="1" opacity="1"/></g><g class="mark-text role-axis-label" pointer-events="none"><text text-anchor="end" transform="translate(-7,13)" font-family="sans-serif" font-size="10px" fill="#000" opacity="1">voice</text><text text-anchor="end" transform="translate(-7,33)" font-family="sans-serif" font-size="10px" fill="#000" opacity="1">purchasing and transaction history)</text><text text-anchor="end" transform="translate(-7,53)" font-family="sans-serif" font-size="10px" fill="#000" opacity="1">fingerprint</text><text text-anchor="end" transform="translate(-7,73)" font-family="sans-serif" font-size="10px" fill="#000" opacity="1">facial recognition)</text><text text-anchor="end" transform="translate(-7,93)" font-family="sans-serif" font-size="10px" fill="#000" opacity="1">browsing history)</text><text text-anchor="end" transform="translate(-7,113)" font-family="sans-serif" font-size="10px" fill="#000" opacity="1">Social Security Number and governm…</text><text text-anchor="end" transform="translate(-7,133)" font-family="sans-serif" font-size="10px" fill="#000" opacity="1">Reproductive health-related information</text><text text-anchor="end" transform="translate(-7,153)" font-family="sans-serif" font-size="10px" fill="#000" opacity="1">Not sure</text><text text-anchor="end" transform="translate(-7,173)" font-family="sans-serif" font-size="10px" fill="#000" opacity="1">Network data (e.g.</text><text text-anchor="end" transform="translate(-7,193)" font-family="sans-serif" font-size="10px" fill="#000" opacity="1">Network data</text><text text-anchor="end" transform="translate(-7,213)" font-family="sans-serif" font-size="10px" fill="#000" opacity="1">Minors' data</text><text text-anchor="end" transform="translate(-7,233)" font-family="sans-serif" font-size="10px" fill="#000" opacity="1">Location data</text><text text-anchor="end" transform="translate(-7,253)" font-family="sans-serif" font-size="10px" fill="#000" opacity="1">IP address</text><text text-anchor="end" transform="translate(-7,273)" font-family="sans-serif" font-size="10px" fill="#000" opacity="1">Employment-related data</text><text text-anchor="end" transform="translate(-7,293)" font-family="sans-serif" font-size="10px" fill="#000" opacity="1">Commercial transactions data</text><text text-anchor="end" transform="translate(-7,313)" font-family="sans-serif" font-size="10px" fill="#000" opacity="1">Commercial data (e.g.</text><text text-anchor="end" transform="translate(-7,333)" font-family="sans-serif" font-size="10px" fill="#000" opacity="1">Biometric data (e.g.</text><text text-anchor="end" transform="translate(-7,353)" font-family="sans-serif" font-size="10px" fill="#000" opacity="1">Biometric data</text></g><g class="mark-rule role-axis-domain" pointer-events="none"><line transform="translate(0,0)" x2="0" y2="360" stroke="#888" stroke-width="1" opacity="1"/></g><g class="mark-text role-axis-title" pointer-events="none"><text text-anchor="middle" transform="translate(-191,180) rotate(-90) translate(0,-2)" font-family="sans-serif" font-size="11px" font-weight="bold" fill="#000" opacity="1">Data Type</text></g></g><path class="foreground" aria-hidden="true" d="" pointer-events="none" display="none"/></g></g><g class="mark-group role-scope view_1_pathgroup" role="graphics-object" aria-roledescription="group mark container"><g transform="translate(0,0)"><path class="background" aria-hidden="true" d="M0,0h300v360h-300Z"/><g><g class="mark-line role-mark view_1_marks" clip-path="url(#clip1)" role="graphics-object" aria-roledescription="line mark container"><path aria-label="Percentage (%): 0; Data Type: Commercial transactions data; Category: Commercial transactions data" role="graphics-symbol" aria-roledescription="line mark" d="M0,290L275,290" stroke="lightgray" stroke-width="5"/></g></g><path class="foreground" aria-hidden="true" d="" display="none"/></g><g transform="translate(0,0)"><path class="background" aria-hidden="true" d="M0,0h300v360h-300Z"/><g><g class="mark-line role-mark view_1_marks" clip-path="url(#clip2)" role="graphics-object" aria-roledescription="line mark container"><path aria-label="Percentage (%): 35.4838709677; Data Type: Employment-related data; Category: Employment-related data" role="graphics-symbol" aria-roledescription="line mark" d="M106.452,270L247.059,270" stroke="lightgray" stroke-width="5"/></g></g><path class="foreground" aria-hidden="true" d="" display="none"/></g><g transform="translate(0,0)"><path class="background" aria-hidden="true" d="M0,0h300v360h-300Z"/><g><g class="mark-line role-mark view_1_marks" clip-path="url(#clip3)" role="graphics-object" aria-roledescription="line mark container"><path aria-label="Percentage (%): 70.4545454545; Data Type: Location data; Category: Location data" role="graphics-symbol" aria-roledescription="line mark" d="M211.364,230L48.387,230" stroke="lightgray" stroke-width="5"/></g></g><path class="foreground" aria-hidden="true" d="" display="none"/></g><g transform="translate(0,0)"><path class="background" aria-hidden="true" d="M0,0h300v360h-300Z"/><g><g class="mark-line role-mark view_1_marks" clip-path="url(#clip4)" role="graphics-object" aria-roledescription="line mark container"><path aria-label="Percentage (%): 66.6666666667; Data Type: Network data; Category: Network data" role="graphics-symbol" aria-roledescription="line mark" d="M200,190L0,190" stroke="lightgray" stroke-width="5"/></g></g><path class="foreground" aria-hidden="true" d="" display="none"/></g><g transform="translate(0,0)"><path class="background" aria-hidden="true" d="M0,0h300v360h-300Z"/><g><g class="mark-line role-mark view_1_marks" clip-path="url(#clip5)" role="graphics-object" aria-roledescription="line mark container"><path aria-label="Percentage (%): 21.2765957447; Data Type: Minors' data; Category: Minors' data" role="graphics-symbol" aria-roledescription="line mark" d="M63.83,210L9.677,210" stroke="lightgray" stroke-width="5"/></g></g><path class="foreground" aria-hidden="true" d="" display="none"/></g><g transform="translate(0,0)"><path class="background" aria-hidden="true" d="M0,0h300v360h-300Z"/><g><g class="mark-line role-mark view_1_marks" clip-path="url(#clip6)" role="graphics-object" aria-roledescription="line mark container"><path aria-label="Percentage (%): 0; Data Type: Biometric data; Category: Biometric data" role="graphics-symbol" aria-roledescription="line mark" d="M0,350L9.677,350" stroke="lightgray" stroke-width="5"/></g></g><path class="foreground" aria-hidden="true" d="" display="none"/></g><g transform="translate(0,0)"><path class="background" aria-hidden="true" d="M0,0h300v360h-300Z"/><g><g class="mark-line role-mark view_1_marks" clip-path="url(#clip7)" role="graphics-object" aria-roledescription="line mark container"><path aria-label="Percentage (%): 1.6; Data Type: Reproductive health-related information; Category: Reproductive health-related information" role="graphics-symbol" aria-roledescription="line mark" d="M4.8,130L38.71,130" stroke="lightgray" stroke-width="5"/></g></g><path class="foreground" aria-hidden="true" d="" display="none"/></g><g transform="translate(0,0)"><path class="background" aria-hidden="true" d="M0,0h300v360h-300Z"/><g><g class="mark-line role-mark view_1_marks" clip-path="url(#clip8)" role="graphics-object" aria-roledescription="line mark container"><path aria-label="Percentage (%): 6.45161290323; Data Type: Social Security Number and government ID information; Category: Social Security Number and government ID information" role="graphics-symbol" aria-roledescription="line mark" d="M19.355,110L4.839,110" stroke="lightgray" stroke-width="5"/></g></g><path class="foreground" aria-hidden="true" d="" display="none"/></g><g transform="translate(0,0)"><path class="background" aria-hidden="true" d="M0,0h300v360h-300Z"/><g><g class="mark-line role-mark view_1_marks" clip-path="url(#clip9)" role="graphics-object" aria-roledescription="line mark container"><path aria-label="Percentage (%): 11.2903225806; Data Type: Biometric data (e.g.; Category: Biometric data (e.g." role="graphics-symbol" aria-roledescription="line mark" d="M33.871,330L0,330" stroke="lightgray" stroke-width="5"/></g></g><path class="foreground" aria-hidden="true" d="" display="none"/></g><g transform="translate(0,0)"><path class="background" aria-hidden="true" d="M0,0h300v360h-300Z"/><g><g class="mark-line role-mark view_1_marks" clip-path="url(#clip10)" role="graphics-object" aria-roledescription="line mark container"><path aria-label="Percentage (%): 0; Data Type: Commercial data (e.g.; Category: Commercial data (e.g." role="graphics-symbol" aria-roledescription="line mark" d="M0,310L159.677,310" stroke="lightgray" stroke-width="5"/></g></g><path class="foreground" aria-hidden="true" d="" display="none"/></g><g transform="translate(0,0)"><path class="background" aria-hidden="true" d="M0,0h300v360h-300Z"/><g><g class="mark-line role-mark view_1_marks" clip-path="url(#clip11)" role="graphics-object" aria-roledescription="line mark container"><path aria-label="Percentage (%): 0; Data Type: IP address; Category: IP address" role="graphics-symbol" aria-roledescription="line mark" d="M0,250L72.581,250" stroke="lightgray" stroke-width="5"/></g></g><path class="foreground" aria-hidden="true" d="" display="none"/></g><g transform="translate(0,0)"><path class="background" aria-hidden="true" d="M0,0h300v360h-300Z"/><g><g class="mark-line role-mark view_1_marks" clip-path="url(#clip12)" role="graphics-object" aria-roledescription="line mark container"><path aria-label="Percentage (%): 0; Data Type: Network data (e.g.; Category: Network data (e.g." role="graphics-symbol" aria-roledescription="line mark" d="M0,170L72.581,170" stroke="lightgray" stroke-width="5"/></g></g><path class="foreground" aria-hidden="true" d="" display="none"/></g><g transform="translate(0,0)"><path class="background" aria-hidden="true" d="M0,0h300v360h-300Z"/><g><g class="mark-line role-mark view_1_marks" clip-path="url(#clip13)" role="graphics-object" aria-roledescription="line mark container"><path aria-label="Percentage (%): 27.4193548387; Data Type: Not sure; Category: Not sure" role="graphics-symbol" aria-roledescription="line mark" d="M82.258,150L0,150" stroke="lightgray" stroke-width="5"/></g></g><path class="foreground" aria-hidden="true" d="" display="none"/></g><g transform="translate(0,0)"><path class="background" aria-hidden="true" d="M0,0h300v360h-300Z"/><g><g class="mark-line role-mark view_1_marks" clip-path="url(#clip14)" role="graphics-object" aria-roledescription="line mark container"><path aria-label="Percentage (%): 24.1935483871; Data Type: browsing history); Category: browsing history)" role="graphics-symbol" aria-roledescription="line mark" d="M72.581,90L0,90" stroke="lightgray" stroke-width="5"/></g></g><path class="foreground" aria-hidden="true" d="" display="none"/></g><g transform="translate(0,0)"><path class="background" aria-hidden="true" d="M0,0h300v360h-300Z"/><g><g class="mark-line role-mark view_1_marks" clip-path="url(#clip15)" role="graphics-object" aria-roledescription="line mark container"><path aria-label="Percentage (%): 0; Data Type: facial recognition); Category: facial recognition)" role="graphics-symbol" aria-roledescription="line mark" d="M0,70L33.871,70" stroke="lightgray" stroke-width="5"/></g></g><path class="foreground" aria-hidden="true" d="" display="none"/></g><g transform="translate(0,0)"><path class="background" aria-hidden="true" d="M0,0h300v360h-300Z"/><g><g class="mark-line role-mark view_1_marks" clip-path="url(#clip16)" role="graphics-object" aria-roledescription="line mark container"><path aria-label="Percentage (%): 0; Data Type: fingerprint; Category: fingerprint" role="graphics-symbol" aria-roledescription="line mark" d="M0,50L33.871,50" stroke="lightgray" stroke-width="5"/></g></g><path class="foreground" aria-hidden="true" d="" display="none"/></g><g transform="translate(0,0)"><path class="background" aria-hidden="true" d="M0,0h300v360h-300Z"/><g><g class="mark-line role-mark view_1_marks" clip-path="url(#clip17)" role="graphics-object" aria-roledescription="line mark container"><path aria-label="Percentage (%): 0; Data Type: purchasing and transaction history); Category: purchasing and transaction history)" role="graphics-symbol" aria-roledescription="line mark" d="M0,30L159.677,30" stroke="lightgray" stroke-width="5"/></g></g><path class="foreground" aria-hidden="true" d="" display="none"/></g><g transform="translate(0,0)"><path class="background" aria-hidden="true" d="M0,0h300v360h-300Z"/><g><g class="mark-line role-mark view_1_marks" clip-path="url(#clip18)" role="graphics-object" aria-roledescription="line mark container"><path aria-label="Percentage (%): 11.2903225806; Data Type: voice; Category: voice" role="graphics-symbol" aria-roledescription="line mark" d="M33.871,10L0,10" stroke="lightgray" stroke-width="5"/></g></g><path class="foreground" aria-hidden="true" d="" display="none"/></g></g><g class="mark-symbol role-mark layer_0_layer_1_marks" clip-path="url(#clip19)" role="graphics-object" aria-roledescription="symbol mark container" pointer-events="none"><path aria-label="Percentage (%): 0; Data Type: Commercial transactions data; Category: Commercial transactions data" role="graphics-symbol" aria-roledescription="point" transform="translate(0,290)" d="M2.739,0A2.739,2.739,0,1,1,-2.739,0A2.739,2.739,0,1,1,2.739,0" fill="lightgray" stroke-width="2" opacity="1"/><path aria-label="Percentage (%): 91.6666666667; Data Type: Commercial transactions data; Category: Commercial transactions data" role="graphics-symbol" aria-roledescription="point" transform="translate(274.99999999999994,290)" d="M2.739,0A2.739,2.739,0,1,1,-2.739,0A2.739,2.739,0,1,1,2.739,0" fill="lightgray" stroke-width="2" opacity="1"/><path aria-label="Percentage (%): 35.4838709677; Data Type: Employment-related data; Category: Employment-related data" role="graphics-symbol" aria-roledescription="point" transform="translate(106.45161290322581,270)" d="M2.739,0A2.739,2.739,0,1,1,-2.739,0A2.739,2.739,0,1,1,2.739,0" fill="lightgray" stroke-width="2" opacity="1"/><path aria-label="Percentage (%): 82.3529411765; Data Type: Employment-related data; Category: Employment-related data" role="graphics-symbol" aria-roledescription="point" transform="translate(247.05882352941174,270)" d="M2.739,0A2.739,2.739,0,1,1,-2.739,0A2.739,2.739,0,1,1,2.739,0" fill="lightgray" stroke-width="2" opacity="1"/><path aria-label="Percentage (%): 70.4545454545; Data Type: Location data; Category: Location data" role="graphics-symbol" aria-roledescription="point" transform="translate(211.36363636363637,230)" d="M2.739,0A2.739,2.739,0,1,1,-2.739,0A2.739,2.739,0,1,1,2.739,0" fill="lightgray" stroke-width="2" opacity="1"/><path aria-label="Percentage (%): 16.1290322581; Data Type: Location data; Category: Location data" role="graphics-symbol" aria-roledescription="point" transform="translate(48.387096774193544,230)" d="M2.739,0A2.739,2.739,0,1,1,-2.739,0A2.739,2.739,0,1,1,2.739,0" fill="lightgray" stroke-width="2" opacity="1"/><path aria-label="Percentage (%): 66.6666666667; Data Type: Network data; Category: Network data" role="graphics-symbol" aria-roledescription="point" transform="translate(199.99999999999994,190)" d="M2.739,0A2.739,2.739,0,1,1,-2.739,0A2.739,2.739,0,1,1,2.739,0" fill="lightgray" stroke-width="2" opacity="1"/><path aria-label="Percentage (%): 0; Data Type: Network data; Category: Network data" role="graphics-symbol" aria-roledescription="point" transform="translate(0,190)" d="M2.739,0A2.739,2.739,0,1,1,-2.739,0A2.739,2.739,0,1,1,2.739,0" fill="lightgray" stroke-width="2" opacity="1"/><path aria-label="Percentage (%): 21.2765957447; Data Type: Minors' data; Category: Minors' data" role="graphics-symbol" aria-roledescription="point" transform="translate(63.829787234042556,210)" d="M2.739,0A2.739,2.739,0,1,1,-2.739,0A2.739,2.739,0,1,1,2.739,0" fill="lightgray" stroke-width="2" opacity="1"/><path aria-label="Percentage (%): 3.22580645161; Data Type: Minors' data; Category: Minors' data" role="graphics-symbol" aria-roledescription="point" transform="translate(9.67741935483871,210)" d="M2.739,0A2.739,2.739,0,1,1,-2.739,0A2.739,2.739,0,1,1,2.739,0" fill="lightgray" stroke-width="2" opacity="1"/><path aria-label="Percentage (%): 0; Data Type: Biometric data; Category: Biometric data" role="graphics-symbol" aria-roledescription="point" transform="translate(0,350)" d="M2.739,0A2.739,2.739,0,1,1,-2.739,0A2.739,2.739,0,1,1,2.739,0" fill="lightgray" stroke-width="2" opacity="1"/><path aria-label="Percentage (%): 3.22580645161; Data Type: Biometric data; Category: Biometric data" role="graphics-symbol" aria-roledescription="point" transform="translate(9.67741935483871,350)" d="M2.739,0A2.739,2.739,0,1,1,-2.739,0A2.739,2.739,0,1,1,2.739,0" fill="lightgray" stroke-width="2" opacity="1"/><path aria-label="Percentage (%): 1.6; Data Type: Reproductive health-related information; Category: Reproductive health-related information" role="graphics-symbol" aria-roledescription="point" transform="translate(4.8,130)" d="M2.739,0A2.739,2.739,0,1,1,-2.739,0A2.739,2.739,0,1,1,2.739,0" fill="lightgray" stroke-width="2" opacity="1"/><path aria-label="Percentage (%): 12.9032258065; Data Type: Reproductive health-related information; Category: Reproductive health-related information" role="graphics-symbol" aria-roledescription="point" transform="translate(38.70967741935484,130)" d="M2.739,0A2.739,2.739,0,1,1,-2.739,0A2.739,2.739,0,1,1,2.739,0" fill="lightgray" stroke-width="2" opacity="1"/><path aria-label="Percentage (%): 6.45161290323; Data Type: Social Security Number and government ID information; Category: Social Security Number and government ID information" role="graphics-symbol" aria-roledescription="point" transform="translate(19.35483870967742,110)" d="M2.739,0A2.739,2.739,0,1,1,-2.739,0A2.739,2.739,0,1,1,2.739,0" fill="lightgray" stroke-width="2" opacity="1"/><path aria-label="Percentage (%): 1.61290322581; Data Type: Social Security Number and government ID information; Category: Social Security Number and government ID information" role="graphics-symbol" aria-roledescription="point" transform="translate(4.838709677419355,110)" d="M2.739,0A2.739,2.739,0,1,1,-2.739,0A2.739,2.739,0,1,1,2.739,0" fill="lightgray" stroke-width="2" opacity="1"/><path aria-label="Percentage (%): 11.2903225806; Data Type: Biometric data (e.g.; Category: Biometric data (e.g." role="graphics-symbol" aria-roledescription="point" transform="translate(33.87096774193548,330)" d="M2.739,0A2.739,2.739,0,1,1,-2.739,0A2.739,2.739,0,1,1,2.739,0" fill="lightgray" stroke-width="2" opacity="1"/><path aria-label="Percentage (%): 0; Data Type: Biometric data (e.g.; Category: Biometric data (e.g." role="graphics-symbol" aria-roledescription="point" transform="translate(0,330)" d="M2.739,0A2.739,2.739,0,1,1,-2.739,0A2.739,2.739,0,1,1,2.739,0" fill="lightgray" stroke-width="2" opacity="1"/><path aria-label="Percentage (%): 0; Data Type: Commercial data (e.g.; Category: Commercial data (e.g." role="graphics-symbol" aria-roledescription="point" transform="translate(0,310)" d="M2.739,0A2.739,2.739,0,1,1,-2.739,0A2.739,2.739,0,1,1,2.739,0" fill="lightgray" stroke-width="2" opacity="1"/><path aria-label="Percentage (%): 53.2258064516; Data Type: Commercial data (e.g.; Category: Commercial data (e.g." role="graphics-symbol" aria-roledescription="point" transform="translate(159.6774193548387,310)" d="M2.739,0A2.739,2.739,0,1,1,-2.739,0A2.739,2.739,0,1,1,2.739,0" fill="lightgray" stroke-width="2" opacity="1"/><path aria-label="Percentage (%): 0; Data Type: IP address; Category: IP address" role="graphics-symbol" aria-roledescription="point" transform="translate(0,250)" d="M2.739,0A2.739,2.739,0,1,1,-2.739,0A2.739,2.739,0,1,1,2.739,0" fill="lightgray" stroke-width="2" opacity="1"/><path aria-label="Percentage (%): 24.1935483871; Data Type: IP address; Category: IP address" role="graphics-symbol" aria-roledescription="point" transform="translate(72.58064516129032,250)" d="M2.739,0A2.739,2.739,0,1,1,-2.739,0A2.739,2.739,0,1,1,2.739,0" fill="lightgray" stroke-width="2" opacity="1"/><path aria-label="Percentage (%): 0; Data Type: Network data (e.g.; Category: Network data (e.g." role="graphics-symbol" aria-roledescription="point" transform="translate(0,170)" d="M2.739,0A2.739,2.739,0,1,1,-2.739,0A2.739,2.739,0,1,1,2.739,0" fill="lightgray" stroke-width="2" opacity="1"/><path aria-label="Percentage (%): 24.1935483871; Data Type: Network data (e.g.; Category: Network data (e.g." role="graphics-symbol" aria-roledescription="point" transform="translate(72.58064516129032,170)" d="M2.739,0A2.739,2.739,0,1,1,-2.739,0A2.739,2.739,0,1,1,2.739,0" fill="lightgray" stroke-width="2" opacity="1"/><path aria-label="Percentage (%): 27.4193548387; Data Type: Not sure; Category: Not sure" role="graphics-symbol" aria-roledescription="point" transform="translate(82.25806451612902,150)" d="M2.739,0A2.739,2.739,0,1,1,-2.739,0A2.739,2.739,0,1,1,2.739,0" fill="lightgray" stroke-width="2" opacity="1"/><path aria-label="Percentage (%): 0; Data Type: Not sure; Category: Not sure" role="graphics-symbol" aria-roledescription="point" transform="translate(0,150)" d="M2.739,0A2.739,2.739,0,1,1,-2.739,0A2.739,2.739,0,1,1,2.739,0" fill="lightgray" stroke-width="2" opacity="1"/><path aria-label="Percentage (%): 24.1935483871; Data Type: browsing history); Category: browsing history)" role="graphics-symbol" aria-roledescription="point" transform="translate(72.58064516129032,90)" d="M2.739,0A2.739,2.739,0,1,1,-2.739,0A2.739,2.739,0,1,1,2.739,0" fill="lightgray" stroke-width="2" opacity="1"/><path aria-label="Percentage (%): 0; Data Type: browsing history); Category: browsing history)" role="graphics-symbol" aria-roledescription="point" transform="translate(0,90)" d="M2.739,0A2.739,2.739,0,1,1,-2.739,0A2.739,2.739,0,1,1,2.739,0" fill="lightgray" stroke-width="2" opacity="1"/><path aria-label="Percentage (%): 0; Data Type: facial recognition); Category: facial recognition)" role="graphics-symbol" aria-roledescription="point" transform="translate(0,70)" d="M2.739,0A2.739,2.739,0,1,1,-2.739,0A2.739,2.739,0,1,1,2.739,0" fill="lightgray" stroke-width="2" opacity="1"/><path aria-label="Percentage (%): 11.2903225806; Data Type: facial recognition); Category: facial recognition)" role="graphics-symbol" aria-roledescription="point" transform="translate(33.87096774193548,70)" d="M2.739,0A2.739,2.739,0,1,1,-2.739,0A2.739,2.739,0,1,1,2.739,0" fill="lightgray" stroke-width="2" opacity="1"/><path aria-label="Percentage (%): 0; Data Type: fingerprint; Category: fingerprint" role="graphics-symbol" aria-roledescription="point" transform="translate(0,50)" d="M2.739,0A2.739,2.739,0,1,1,-2.739,0A2.739,2.739,0,1,1,2.739,0" fill="lightgray" stroke-width="2" opacity="1"/><path aria-label="Percentage (%): 11.2903225806; Data Type: fingerprint; Category: fingerprint" role="graphics-symbol" aria-roledescription="point" transform="translate(33.87096774193548,50)" d="M2.739,0A2.739,2.739,0,1,1,-2.739,0A2.739,2.739,0,1,1,2.739,0" fill="lightgray" stroke-width="2" opacity="1"/><path aria-label="Percentage (%): 0; Data Type: purchasing and transaction history); Category: purchasing and transaction history)" role="graphics-symbol" aria-roledescription="point" transform="translate(0,30)" d="M2.739,0A2.739,2.739,0,1,1,-2.739,0A2.739,2.739,0,1,1,2.739,0" fill="lightgray" stroke-width="2" opacity="1"/><path aria-label="Percentage (%): 53.2258064516; Data Type: purchasing and transaction history); Category: purchasing and transaction history)" role="graphics-symbol" aria-roledescription="point" transform="translate(159.6774193548387,30)" d="M2.739,0A2.739,2.739,0,1,1,-2.739,0A2.739,2.739,0,1,1,2.739,0" fill="lightgray" stroke-width="2" opacity="1"/><path aria-label="Percentage (%): 11.2903225806; Data Type: voice; Category: voice" role="graphics-symbol" aria-roledescription="point" transform="translate(33.87096774193548,10)" d="M2.739,0A2.739,2.739,0,1,1,-2.739,0A2.739,2.739,0,1,1,2.739,0" fill="lightgray" stroke-width="2" opacity="1"/><path aria-label="Percentage (%): 0; Data Type: voice; Category: voice" role="graphics-symbol" aria-roledescription="point" transform="translate(0,10)" d="M2.739,0A2.739,2.739,0,1,1,-2.739,0A2.739,2.739,0,1,1,2.739,0" fill="lightgray" stroke-width="2" opacity="1"/></g><g class="mark-symbol role-mark layer_1_marks" clip-path="url(#clip20)" role="graphics-object" aria-roledescription="symbol mark container"><path aria-label="Percentage (%): 0; Data Type: Commercial transactions data; Source: Consumers" role="graphics-symbol" aria-roledescription="point" transform="translate(0,290)" d="M5,0A5,5,0,1,1,-5,0A5,5,0,1,1,5,0" fill="#3498db" stroke-width="2" opacity="0.7"/><path aria-label="Percentage (%): 91.6666666667; Data Type: Commercial transactions data; Source: Data Brokers (Reported)" role="graphics-symbol" aria-roledescription="point" transform="translate(274.99999999999994,290)" d="M5,0A5,5,0,1,1,-5,0A5,5,0,1,1,5,0" fill="#e74c3c" stroke-width="2" opacity="0.7"/><path aria-label="Percentage (%): 35.4838709677; Data Type: Employment-related data; Source: Consumers" role="graphics-symbol" aria-roledescription="point" transform="translate(106.45161290322581,270)" d="M5,0A5,5,0,1,1,-5,0A5,5,0,1,1,5,0" fill="#3498db" stroke-width="2" opacity="0.7"/><path aria-label="Percentage (%): 82.3529411765; Data Type: Employment-related data; Source: Data Brokers (Reported)" role="graphics-symbol" aria-roledescription="point" transform="translate(247.05882352941174,270)" d="M5,0A5,5,0,1,1,-5,0A5,5,0,1,1,5,0" fill="#e74c3c" stroke-width="2" opacity="0.7"/><path aria-label="Percentage (%): 70.4545454545; Data Type: Location data; Source: Data Brokers (Reported)" role="graphics-symbol" aria-roledescription="point" transform="translate(211.36363636363637,230)" d="M5,0A5,5,0,1,1,-5,0A5,5,0,1,1,5,0" fill="#e74c3c" stroke-width="2" opacity="0.7"/><path aria-label="Percentage (%): 16.1290322581; Data Type: Location data; Source: Consumers" role="graphics-symbol" aria-roledescription="point" transform="translate(48.387096774193544,230)" d="M5,0A5,5,0,1,1,-5,0A5,5,0,1,1,5,0" fill="#3498db" stroke-width="2" opacity="0.7"/><path aria-label="Percentage (%): 66.6666666667; Data Type: Network data; Source: Data Brokers (Reported)" role="graphics-symbol" aria-roledescription="point" transform="translate(199.99999999999994,190)" d="M5,0A5,5,0,1,1,-5,0A5,5,0,1,1,5,0" fill="#e74c3c" stroke-width="2" opacity="0.7"/><path aria-label="Percentage (%): 0; Data Type: Network data; Source: Consumers" role="graphics-symbol" aria-roledescription="point" transform="translate(0,190)" d="M5,0A5,5,0,1,1,-5,0A5,5,0,1,1,5,0" fill="#3498db" stroke-width="2" opacity="0.7"/><path aria-label="Percentage (%): 21.2765957447; Data Type: Minors' data; Source: Data Brokers (Reported)" role="graphics-symbol" aria-roledescription="point" transform="translate(63.829787234042556,210)" d="M5,0A5,5,0,1,1,-5,0A5,5,0,1,1,5,0" fill="#e74c3c" stroke-width="2" opacity="0.7"/><path aria-label="Percentage (%): 3.22580645161; Data Type: Minors' data; Source: Consumers" role="graphics-symbol" aria-roledescription="point" transform="translate(9.67741935483871,210)" d="M5,0A5,5,0,1,1,-5,0A5,5,0,1,1,5,0" fill="#3498db" stroke-width="2" opacity="0.7"/><path aria-label="Percentage (%): 0; Data Type: Biometric data; Source: Consumers" role="graphics-symbol" aria-roledescription="point" transform="translate(0,350)" d="M5,0A5,5,0,1,1,-5,0A5,5,0,1,1,5,0" fill="#3498db" stroke-width="2" opacity="0.7"/><path aria-label="Percentage (%): 3.22580645161; Data Type: Biometric data; Source: Data Brokers (Reported)" role="graphics-symbol" aria-roledescription="point" transform="translate(9.67741935483871,350)" d="M5,0A5,5,0,1,1,-5,0A5,5,0,1,1,5,0" fill="#e74c3c" stroke-width="2" opacity="0.7"/><path aria-label="Percentage (%): 1.6; Data Type: Reproductive health-related information; Source: Data Brokers (Reported)" role="graphics-symbol" aria-roledescription="point" transform="translate(4.8,130)" d="M5,0A5,5,0,1,1,-5,0A5,5,0,1,1,5,0" fill="#e74c3c" stroke-width="2" opacity="0.7"/><path aria-label="Percentage (%): 12.9032258065; Data Type: Reproductive health-related information; Source: Consumers" role="graphics-symbol" aria-roledescription="point" transform="translate(38.70967741935484,130)" d="M5,0A5,5,0,1,1,-5,0A5,5,0,1,1,5,0" fill="#3498db" stroke-width="2" opacity="0.7"/><path aria-label="Percentage (%): 6.45161290323; Data Type: Social Security Number and government ID information; Source: Data Brokers (Reported)" role="graphics-symbol" aria-roledescription="point" transform="translate(19.35483870967742,110)" d="M5,0A5,5,0,1,1,-5,0A5,5,0,1,1,5,0" fill="#e74c3c" stroke-width="2" opacity="0.7"/><path aria-label="Percentage (%): 1.61290322581; Data Type: Social Security Number and government ID information; Source: Consumers" role="graphics-symbol" aria-roledescription="point" transform="translate(4.838709677419355,110)" d="M5,0A5,5,0,1,1,-5,0A5,5,0,1,1,5,0" fill="#3498db" stroke-width="2" opacity="0.7"/><path aria-label="Percentage (%): 11.2903225806; Data Type: Biometric data (e.g.; Source: Consumers" role="graphics-symbol" aria-roledescription="point" transform="translate(33.87096774193548,330)" d="M5,0A5,5,0,1,1,-5,0A5,5,0,1,1,5,0" fill="#3498db" stroke-width="2" opacity="0.7"/><path aria-label="Percentage (%): 0; Data Type: Biometric data (e.g.; Source: Data Brokers (Reported)" role="graphics-symbol" aria-roledescription="point" transform="translate(0,330)" d="M5,0A5,5,0,1,1,-5,0A5,5,0,1,1,5,0" fill="#e74c3c" stroke-width="2" opacity="0.7"/><path aria-label="Percentage (%): 0; Data Type: Commercial data (e.g.; Source: Data Brokers (Reported)" role="graphics-symbol" aria-roledescription="point" transform="translate(0,310)" d="M5,0A5,5,0,1,1,-5,0A5,5,0,1,1,5,0" fill="#e74c3c" stroke-width="2" opacity="0.7"/><path aria-label="Percentage (%): 53.2258064516; Data Type: Commercial data (e.g.; Source: Consumers" role="graphics-symbol" aria-roledescription="point" transform="translate(159.6774193548387,310)" d="M5,0A5,5,0,1,1,-5,0A5,5,0,1,1,5,0" fill="#3498db" stroke-width="2" opacity="0.7"/><path aria-label="Percentage (%): 0; Data Type: IP address; Source: Data Brokers (Reported)" role="graphics-symbol" aria-roledescription="point" transform="translate(0,250)" d="M5,0A5,5,0,1,1,-5,0A5,5,0,1,1,5,0" fill="#e74c3c" stroke-width="2" opacity="0.7"/><path aria-label="Percentage (%): 24.1935483871; Data Type: IP address; Source: Consumers" role="graphics-symbol" aria-roledescription="point" transform="translate(72.58064516129032,250)" d="M5,0A5,5,0,1,1,-5,0A5,5,0,1,1,5,0" fill="#3498db" stroke-width="2" opacity="0.7"/><path aria-label="Percentage (%): 0; Data Type: Network data (e.g.; Source: Data Brokers (Reported)" role="graphics-symbol" aria-roledescription="point" transform="translate(0,170)" d="M5,0A5,5,0,1,1,-5,0A5,5,0,1,1,5,0" fill="#e74c3c" stroke-width="2" opacity="0.7"/><path aria-label="Percentage (%): 24.1935483871; Data Type: Network data (e.g.; Source: Consumers" role="graphics-symbol" aria-roledescription="point" transform="translate(72.58064516129032,170)" d="M5,0A5,5,0,1,1,-5,0A5,5,0,1,1,5,0" fill="#3498db" stroke-width="2" opacity="0.7"/><path aria-label="Percentage (%): 27.4193548387; Data Type: Not sure; Source: Consumers" role="graphics-symbol" aria-roledescription="point" transform="translate(82.25806451612902,150)" d="M5,0A5,5,0,1,1,-5,0A5,5,0,1,1,5,0" fill="#3498db" stroke-width="2" opacity="0.7"/><path aria-label="Percentage (%): 0; Data Type: Not sure; Source: Data Brokers (Reported)" role="graphics-symbol" aria-roledescription="point" transform="translate(0,150)" d="M5,0A5,5,0,1,1,-5,0A5,5,0,1,1,5,0" fill="#e74c3c" stroke-width="2" opacity="0.7"/><path aria-label="Percentage (%): 24.1935483871; Data Type: browsing history); Source: Consumers" role="graphics-symbol" aria-roledescription="point" transform="translate(72.58064516129032,90)" d="M5,0A5,5,0,1,1,-5,0A5,5,0,1,1,5,0" fill="#3498db" stroke-width="2" opacity="0.7"/><path aria-label="Percentage (%): 0; Data Type: browsing history); Source: Data Brokers (Reported)" role="graphics-symbol" aria-roledescription="point" transform="translate(0,90)" d="M5,0A5,5,0,1,1,-5,0A5,5,0,1,1,5,0" fill="#e74c3c" stroke-width="2" opacity="0.7"/><path aria-label="Percentage (%): 0; Data Type: facial recognition); Source: Data Brokers (Reported)" role="graphics-symbol" aria-roledescription="point" transform="translate(0,70)" d="M5,0A5,5,0,1,1,-5,0A5,5,0,1,1,5,0" fill="#e74c3c" stroke-width="2" opacity="0.7"/><path aria-label="Percentage (%): 11.2903225806; Data Type: facial recognition); Source: Consumers" role="graphics-symbol" aria-roledescription="point" transform="translate(33.87096774193548,70)" d="M5,0A5,5,0,1,1,-5,0A5,5,0,1,1,5,0" fill="#3498db" stroke-width="2" opacity="0.7"/><path aria-label="Percentage (%): 0; Data Type: fingerprint; Source: Data Brokers (Reported)" role="graphics-symbol" aria-roledescription="point" transform="translate(0,50)" d="M5,0A5,5,0,1,1,-5,0A5,5,0,1,1,5,0" fill="#e74c3c" stroke-width="2" opacity="0.7"/><path aria-label="Percentage (%): 11.2903225806; Data Type: fingerprint; Source: Consumers" role="graphics-symbol" aria-roledescription="point" transform="translate(33.87096774193548,50)" d="M5,0A5,5,0,1,1,-5,0A5,5,0,1,1,5,0" fill="#3498db" stroke-width="2" opacity="0.7"/><path aria-label="Percentage (%): 0; Data Type: purchasing and transaction history); Source: Data Brokers (Reported)" role="graphics-symbol" aria-roledescription="point" transform="translate(0,30)" d="M5,0A5,5,0,1,1,-5,0A5,5,0,1,1,5,0" fill="#e74c3c" stroke-width="2" opacity="0.7"/><path aria-label="Percentage (%): 53.2258064516; Data Type: purchasing and transaction history); Source: Consumers" role="graphics-symbol" aria-roledescription="point" transform="translate(159.6774193548387,30)" d="M5,0A5,5,0,1,1,-5,0A5,5,0,1,1,5,0" fill="#3498db" stroke-width="2" opacity="0.7"/><path aria-label="Percentage (%): 11.2903225806; Data Type: voice; Source: Consumers" role="graphics-symbol" aria-roledescription="point" transform="translate(33.87096774193548,10)" d="M5,0A5,5,0,1,1,-5,0A5,5,0,1,1,5,0" fill="#3498db" stroke-width="2" opacity="0.7"/><path aria-label="Percentage (%): 0; Data Type: voice; Source: Data Brokers (Reported)" role="graphics-symbol" aria-roledescription="point" transform="translate(0,10)" d="M5,0A5,5,0,1,1,-5,0A5,5,0,1,1,5,0" fill="#e74c3c" stroke-width="2" opacity="0.7"/></g><g class="mark-group role-legend" role="graphics-symbol" aria-roledescription="legend" aria-label="Symbol legend titled 'Source' for fill color with 2 values: Consumers, Data Brokers (Reported)"><g transform="translate(318,0)"><path class="background" aria-hidden="true" d="M0,0h125v40h-125Z" pointer-events="none"/><g><g class="mark-group role-legend-entry"><g transform="translate(0,16)"><path class="background" aria-hidden="true" d="M0,0h0v0h0Z" pointer-events="none"/><g><g class="mark-group role-scope" role="graphics-object" aria-roledescription="group mark container"><g transform="translate(0,0)"><path class="background" aria-hidden="true" d="M0,0h124.9306640625v11h-124.9306640625Z" pointer-events="none" opacity="1"/><g><g class="mark-symbol role-legend-symbol" pointer-events="none"><path transform="translate(6,6)" d="M5,0A5,5,0,1,1,-5,0A5,5,0,1,1,5,0" fill="#3498db" stroke-width="1.5" opacity="0.7"/></g><g class="mark-text role-legend-label" pointer-events="none"><text text-anchor="start" transform="translate(16,9)" font-family="sans-serif" font-size="10px" fill="#000" opacity="1">Consumers</text></g></g><path class="foreground" aria-hidden="true" d="" pointer-events="none" display="none"/></g><g transform="translate(0,13)"><path class="background" aria-hidden="true" d="M0,0h124.9306640625v11h-124.9306640625Z" pointer-events="none" opacity="1"/><g><g class="mark-symbol role-legend-symbol" pointer-events="none"><path transform="translate(6,6)" d="M5,0A5,5,0,1,1,-5,0A5,5,0,1,1,5,0" fill="#e74c3c" stroke-width="1.5" opacity="0.7"/></g><g class="mark-text role-legend-label" pointer-events="none"><text text-anchor="start" transform="translate(16,9)" font-family="sans-serif" font-size="10px" fill="#000" opacity="1">Data Brokers (Reported)</text></g></g><path class="foreground" aria-hidden="true" d="" pointer-events="none" display="none"/></g></g></g><path class="foreground" aria-hidden="true" d="" pointer-events="none" display="none"/></g></g><g class="mark-text role-legend-title" pointer-events="none"><text text-anchor="start" transform="translate(0,9)" font-family="sans-serif" font-size="11px" font-weight="bold" fill="#000" opacity="1">Source</text></g></g><path class="foreground" aria-hidden="true" d="" pointer-events="none" display="none"/></g></g><g class="mark-group role-title"><g transform="translate(150,-17)"><path class="background" aria-hidden="true" d="M0,0h0v0h0Z" pointer-events="none"/><g><g class="mark-text role-title-text" role="graphics-symbol" aria-roledescription="title" aria-label="Title text 'Disparity: Data Broker Collection vs. Consumer Comfort (Data Types)'" pointer-events="none"><text text-anchor="middle" transform="translate(0,10)" font-family="sans-serif" font-size="13px" font-weight="bold" fill="#000" opacity="1">Disparity: Data Broker Collection vs. Consumer Comfort (Data Types)</text></g></g><path class="foreground" aria-hidden="true" d="" pointer-events="none" display="none"/></g></g></g><path class="foreground" aria-hidden="true" d="" display="none"/></g></g></g><defs><clipPath id="clip1"><rect x="0" y="0" width="300" height="360"/></clipPath><clipPath id="clip2"><rect x="0" y="0" width="300" height="360"/></clipPath><clipPath id="clip3"><rect x="0" y="0" width="300" height="360"/></clipPath><clipPath id="clip4"><rect x="0" y="0" width="300" height="360"/></clipPath><clipPath id="clip5"><rect x="0" y="0" width="300" height="360"/></clipPath><clipPath id="clip6"><rect x="0" y="0" width="300" height="360"/></clipPath><clipPath id="clip7"><rect x="0" y="0" width="300" height="360"/></clipPath><clipPath id="clip8"><rect x="0" y="0" width="300" height="360"/></clipPath><clipPath id="clip9"><rect x="0" y="0" width="300" height="360"/></clipPath><clipPath id="clip10"><rect x="0" y="0" width="300" height="360"/></clipPath><clipPath id="clip11"><rect x="0" y="0" width="300" height="360"/></clipPath><clipPath id="clip12"><rect x="0" y="0" width="300" height="360"/></clipPath><clipPath id="clip13"><rect x="0" y="0" width="300" height="360"/></clipPath><clipPath id="clip14"><rect x="0" y="0" width="300" height="360"/></clipPath><clipPath id="clip15"><rect x="0" y="0" width="300" height="360"/></clipPath><clipPath id="clip16"><rect x="0" y="0" width="300" height="360"/></clipPath><clipPath id="clip17"><rect x="0" y="0" width="300" height="360"/></clipPath><clipPath id="clip18"><rect x="0" y="0" width="300" height="360"/></clipPath><clipPath id="clip19"><rect x="0" y="0" width="300" height="360"/></clipPath><clipPath id="clip20"><rect x="0" y="0" width="300" height="360"/></clipPath></defs></svg>