<svg xmlns="http://www.w3.org/2000/svg" xmlns:xlink="http://www.w3.org/1999/xlink" version="1.1" class="marks" width="491" height="327" viewBox="0 0 491 327"><rect width="491" height="327" fill="white"/><g fill="none" stroke-miterlimit="10" transform="translate(14,22)"><g class="mark-group role-frame root" role="graphics-object" aria-roledescription="group mark container"><g transform="translate(0,0)"><path class="background" aria-hidden="true" d="M0,0h300v300h-300Z"/><g><g class="mark-arc role-mark layer_0_marks" role="graphics-object" aria-roledescription="arc mark container"><path aria-label="count: 22; response_category: No Knowledge" role="graphics-symbol" aria-roledescription="arc mark" transform="translate(150,150)" d="M0,-120A120,120,0,0,0,-94.893,73.453L0,0Z" fill="#54a24b"/><path aria-label="count: 21; response_category: Minimal Knowledge" role="graphics-symbol" aria-roledescription="arc mark" transform="translate(150,150)" d="M-94.893,73.453A120,120,0,0,0,112.53,41.677L0,0Z" fill="#72b7b2"/><path aria-label="count: 17; response_category: Basic Understanding" role="graphics-symbol" aria-roledescription="arc mark" transform="translate(150,150)" d="M118.616,18.171A120,120,0,0,0,0,-120L0,0Z" fill="#4c78a8"/><path aria-label="count: 1; response_category: Good Understanding" role="graphics-symbol" aria-roledescription="arc mark" transform="translate(150,150)" d="M116.169,30.078A120,120,0,0,0,118.616,18.171L0,0Z" fill="#f58518"/><path aria-label="count: 1; response_category: High Familiarity" role="graphics-symbol" aria-roledescription="arc mark" transform="translate(150,150)" d="M112.53,41.677A120,120,0,0,0,116.169,30.078L0,0Z" fill="#e45756"/></g><g class="mark-text role-mark layer_1_marks" role="graphics-object" aria-roledescription="text mark container"><text aria-label="count: 22; response_category: No Knowledge; percent: 35.48%" role="graphics-symbol" aria-roledescription="text mark" text-anchor="middle" transform="translate(24.307364460096196,92.34481878193114)" font-family="sans-serif" font-size="12px" fill="#54a24b">35.48%</text><text aria-label="count: 21; response_category: Minimal Knowledge; percent: 33.87%" role="graphics-symbol" aria-roledescription="text mark" text-anchor="middle" transform="translate(171.19988885064072,292.3855654059356)" font-family="sans-serif" font-size="12px" fill="#72b7b2">33.87%</text><text aria-label="count: 17; response_category: Basic Understanding; percent: 27.42%" role="graphics-symbol" aria-roledescription="text mark" text-anchor="middle" transform="translate(256.22613717699073,62.807852418888885)" font-family="sans-serif" font-size="12px" fill="#4c78a8">27.42%</text><text aria-label="count: 1; response_category: Good Understanding; percent: 1.61%" role="graphics-symbol" aria-roledescription="text mark" text-anchor="middle" transform="translate(287.1341917753492,182.18179281241243)" font-family="sans-serif" font-size="12px" fill="#f58518">1.61%</text><text aria-label="count: 1; response_category: High Familiarity; percent: 1.61%" role="graphics-symbol" aria-roledescription="text mark" text-anchor="middle" transform="translate(283.57949589600685,195.91083721627012)" font-family="sans-serif" font-size="12px" fill="#e45756">1.61%</text></g><g class="mark-group role-legend" role="graphics-symbol" aria-roledescription="legend" aria-label="Symbol legend titled 'Familiarity With Data Brokers' for fill color with 5 values: Basic Understanding, Good Understanding, High Familiarity, Minimal Knowledge, No Knowledge"><g transform="translate(318,0)"><path class="background" aria-hidden="true" d="M0,0h154v79h-154Z" pointer-events="none"/><g><g class="mark-group role-legend-entry"><g transform="translate(0,16)"><path class="background" aria-hidden="true" d="M0,0h0v0h0Z" pointer-events="none"/><g><g class="mark-group role-scope" role="graphics-object" aria-roledescription="group mark container"><g transform="translate(0,0)"><path class="background" aria-hidden="true" d="M0,0h108.28515625v11h-108.28515625Z" pointer-events="none" opacity="1"/><g><g class="mark-symbol role-legend-symbol" pointer-events="none"><path transform="translate(6,6)" d="M5,0A5,5,0,1,1,-5,0A5,5,0,1,1,5,0" fill="#4c78a8" stroke-width="1.5" opacity="1"/></g><g class="mark-text role-legend-label" pointer-events="none"><text text-anchor="start" transform="translate(16,9)" font-family="sans-serif" font-size="10px" fill="#000" opacity="1">Basic Understanding</text></g></g><path class="foreground" aria-hidden="true" d="" pointer-events="none" display="none"/></g><g transform="translate(0,13)"><path class="background" aria-hidden="true" d="M0,0h108.28515625v11h-108.28515625Z" pointer-events="none" opacity="1"/><g><g class="mark-symbol role-legend-symbol" pointer-events="none"><path transform="translate(6,6)" d="M5,0A5,5,0,1,1,-5,0A5,5,0,1,1,5,0" fill="#f58518" stroke-width="1.5" opacity="1"/></g><g class="mark-text role-legend-label" pointer-events="none"><text text-anchor="start" transform="translate(16,9)" font-family="sans-serif" font-size="10px" fill="#000" opacity="1">Good Understanding</text></g></g><path class="foreground" aria-hidden="true" d="" pointer-events="none" display="none"/></g><g transform="translate(0,26)"><path class="background" aria-hidden="true" d="M0,0h108.28515625v11h-108.28515625Z" pointer-events="none" opacity="1"/><g><g class="mark-symbol role-legend-symbol" pointer-events="none"><path transform="translate(6,6)" d="M5,0A5,5,0,1,1,-5,0A5,5,0,1,1,5,0" fill="#e45756" stroke-width="1.5" opacity="1"/></g><g class="mark-text role-legend-label" pointer-events="none"><text text-anchor="start" transform="translate(16,9)" font-family="sans-serif" font-size="10px" fill="#000" opacity="1">High Familiarity</text></g></g><path class="foreground" aria-hidden="true" d="" pointer-events="none" display="none"/></g><g transform="translate(0,39)"><path class="background" aria-hidden="true" d="M0,0h108.28515625v11h-108.28515625Z" pointer-events="none" opacity="1"/><g><g class="mark-symbol role-legend-symbol" pointer-events="none"><path transform="translate(6,6)" d="M5,0A5,5,0,1,1,-5,0A5,5,0,1,1,5,0" fill="#72b7b2" stroke-width="1.5" opacity="1"/></g><g class="mark-text role-legend-label" pointer-events="none"><text text-anchor="start" transform="translate(16,9)" font-family="sans-serif" font-size="10px" fill="#000" opacity="1">Minimal Knowledge</text></g></g><path class="foreground" aria-hidden="true" d="" pointer-events="none" display="none"/></g><g transform="translate(0,52)"><path class="background" aria-hidden="true" d="M0,0h108.28515625v11h-108.28515625Z" pointer-events="none" opacity="1"/><g><g class="mark-symbol role-legend-symbol" pointer-events="none"><path transform="translate(6,6)" d="M5,0A5,5,0,1,1,-5,0A5,5,0,1,1,5,0" fill="#54a24b" stroke-width="1.5" opacity="1"/></g><g class="mark-text role-legend-label" pointer-events="none"><text text-anchor="start" transform="translate(16,9)" font-family="sans-serif" font-size="10px" fill="#000" opacity="1">No Knowledge</text></g></g><path class="foreground" aria-hidden="true" d="" pointer-events="none" display="none"/></g></g></g><path class="foreground" aria-hidden="true" d="" pointer-events="none" display="none"/></g></g><g class="mark-text role-legend-title" pointer-events="none"><text text-anchor="start" transform="translate(0,9)" font-family="sans-serif" font-size="11px" font-weight="bold" fill="#000" opacity="1">Familiarity With Data Brokers</text></g></g><path class="foreground" aria-hidden="true" d="" pointer-events="none" display="none"/></g></g><g class="mark-group role-title"><g transform="translate(150,-17)"><path class="background" aria-hidden="true" d="M0,0h0v0h0Z" pointer-events="none"/><g><g class="mark-text role-title-text" role="graphics-symbol" aria-roledescription="title" aria-label="Title text 'Survey Respondents' Familiarity With Data Brokers'" pointer-events="none"><text text-anchor="middle" transform="translate(0,10)" font-family="sans-serif" font-size="13px" font-weight="bold" fill="#000" opacity="1">Survey Respondents' Familiarity With Data Brokers</text></g></g><path class="foreground" aria-hidden="true" d="" pointer-events="none" display="none"/></g></g></g><path class="foreground" aria-hidden="true" d="" display="none"/></g></g></g></svg>